<?xml version="1.0" encoding="utf-8"?>
<!-- Generator: Adobe Illustrator 23.1.0, SVG Export Plug-In . SVG Version: 6.00 Build 0)  -->
<svg version="1.1" id="Layer_1" xmlns="http://www.w3.org/2000/svg" xmlns:xlink="http://www.w3.org/1999/xlink" x="0px" y="0px"
	 viewBox="0 0 1024 1024" style="enable-background:new 0 0 1024 1024;" xml:space="preserve" fill="{{ include.fill_color }}">
<g>
	<polygon points="428.55,122.81 442.9,179.1 446.57,99.67 422.71,112.84 422.12,62 390.24,79.59 406.98,134.71 	"/>
	<polygon points="377.17,173.46 432.76,190.31 366.69,146.07 365.61,173.3 321.81,147.5 320.36,183.88 376.19,198.09 	"/>
	<polygon points="590.62,194.19 669.2,182.02 651.56,161.25 701.27,150.58 677.7,122.83 627,150.17 642.95,168.95 	"/>
	<polygon points="577.62,186.48 607.87,112.94 580.97,117.29 597.56,69.23 561.62,75.03 558.78,132.57 583.1,128.64 	"/>
	<path d="M482.24,239.74l0.01,0.19v0.19c0,20.12-15.62,31.99-32.94,35.86c11.81,23.14,35.85,38.99,63.61,38.99
		c20.48,0,38.93-8.64,51.95-22.45c8.06-8.47,10.16-15.61,10.16-15.61s-3.48-0.28-6.84-1.54c-14.89-5.03-27.21-16.4-27.21-34.26
		v-0.19l0.01-0.19c0.88-20.4,12.22-35.25,29.45-39.43c-13-17.65-33.91-29.11-57.51-29.11c-23.5,0-44.35,11.36-57.36,28.88
		C471.24,206.12,481.41,220.45,482.24,239.74z"/>
	<path d="M639.03,208.53c-14.21-0.84-39.26-1.28-61.54,0.65c-17.51,1.52-26.84,15.13-27.56,31.93c0,17.55,16.16,26.49,31.77,28.07
		l43.89,5.11l-44.42,11.62c-14.19,22.8-39.47,38.01-68.24,38.01c-29.97,0-56.15-16.51-69.95-40.9l-44.56-9.73l43.12-5.11
		c15.62-1.58,31.77-10.53,31.77-28.07v0c-0.72-16.8-10.05-30.42-27.56-31.93c-22.28-1.93-46.56-1.49-60.78-0.65
		c-40.82,2.41-105.24,1.2-84.65,50.61c20.59,49.42,119.81,125.56,126.89,171.88c-0.07,1.17-0.15,2.31-0.22,3.39
		c-3.68,52.7-1.11,146.35-1.79,214.72c-1.16,118.24,4.22,232.19,9.8,284.3c1.79,16.81,15.99,29.56,32.92,29.56
		c17.9,0,32.55-14.22,33.08-32.12l8.67-289.74h19.22l29.88,293.03c1.68,16.38,15.47,28.83,31.92,28.83c8.69,0,16.56-3.45,22.35-9.05
		c5.78-5.63,9.48-13.38,9.73-22.07c2.02-69.33-3.4-260.29-7.96-362.97c-2.18-49.1-0.37-82.5-3.61-141.33
		c-0.15-2.72-0.35-5.8-0.6-9.13c8.32-46.22,92.69-109.29,113.11-158.29C744.28,209.73,679.85,210.94,639.03,208.53z"/>
</g>
</svg>
