<?xml version="1.0" encoding="utf-8"?>
<!-- Generator: Adobe Illustrator 23.1.0, SVG Export Plug-In . SVG Version: 6.00 Build 0)  -->
<svg version="1.1" id="Layer_1" xmlns="http://www.w3.org/2000/svg" xmlns:xlink="http://www.w3.org/1999/xlink" x="0px" y="0px"
	 viewBox="0 0 1024 1024" style="enable-background:new 0 0 1024 1024;" xml:space="preserve" fill="{{ include.fill_color }}">
<g>
	<path d="M511.92,231.27c51.86,0.04,70.39-60.02,70.43-98.87c0.03-38.85-31.43-70.37-70.28-70.4c-38.85-0.03-70.37,31.43-70.4,70.28
		C441.62,171.13,462.85,231.23,511.92,231.27z"/>
	<path d="M508.87,451.3l-8.19,38.52c8.56-0.88,15.95-7.08,18-15.88C520.78,464.97,516.68,455.8,508.87,451.3z"/>
	<path d="M342.74,359.06l1.59,38.07l0.51,12.2l-0.01,0.01c0.01,0.15,0.01,0.3,0.02,0.45c1.53,33.13,17.95,46.39,46.6,55.26V399.4
		V262.41C360.65,283.18,340.96,319.02,342.74,359.06z"/>
	<path d="M570.82,243.58h-94.33l31.24,192.67l1.07,6.56c14.67,7.13,17.06,14.72,17.06,14.72c2.41,5.65,3.08,12.08,1.59,18.46
		c-3.16,13.51-15.04,22.95-28.9,22.95c-1.9,0-3.81-0.19-5.68-0.55c-0.82-0.16-1.75-0.35-2.76-0.57l-75.25-9.18
		c-0.22,47.16-0.7,97.2-1.11,138.23c-1.24,126.25-3.3,247.93,2.66,303.57c1.92,17.95,17.08,31.56,35.15,31.56
		c19.11,0,34.76-15.19,35.32-34.3l13.81-298.93c0.27-5.84,5.09-10.45,10.94-10.45c5.69,0,10.43,4.36,10.92,10.02l26,302.87
		c1.79,17.49,16.52,30.79,34.08,30.79c9.28,0,17.68-3.68,23.86-9.67c6.18-6,10.13-14.29,10.39-23.56
		c2.16-74.03,5.27-266.13-2.07-369.56c-1.94-27.48-3.03-65.6-3.73-102.91l-1.03-69.84c-0.1-7.55-0.2-14.6-0.3-21
		c-0.19-12.29-0.36-21.62-0.81-30.08c7.81,2.19,13.59,9.28,13.73,17.79l0.48,30.42l0.14,9.17l0.85,54.18l0,0l0.27,96.51
		c-0.12,10.84,8.69,19.64,19.53,19.53c9.51-0.11,17.17-7.17,18.93-16.53c8.92-47.53,14.59-117.03,16.2-139.11
		c0.19-1.94,0.33-3.9,0.43-5.89c0.02-0.36,0.03-0.73,0.05-1.09v-0.07l0.66-15.76l1.06-25.47
		C684.06,296.13,633.8,243.58,570.82,243.58z M624.75,447.14c0.02,0.24,0.03,0.44,0.04,0.6
		C624.78,447.55,624.76,447.35,624.75,447.14z M624.81,448.09c0,0.06,0.01,0.12,0.01,0.16C624.82,448.2,624.82,448.15,624.81,448.09
		z M624.83,448.31c0,0.07,0.01,0.11,0.01,0.13C624.84,448.42,624.83,448.38,624.83,448.31z"/>
	<path d="M500.46,447.59l-1.61-9.9l-31.48-194.11h-14.18c-19.13,0-37.09,4.85-52.74,13.36v220.88l91.22,11.12L500.46,447.59z"/>
</g>
</svg>
