<?xml version="1.0" encoding="utf-8"?>
<!-- Generator: Adobe Illustrator 16.0.4, SVG Export Plug-In . SVG Version: 6.00 Build 0)  -->
<!DOCTYPE svg PUBLIC "-//W3C//DTD SVG 1.1//EN" "http://www.w3.org/Graphics/SVG/1.1/DTD/svg11.dtd">
<svg version="1.1" id="Layer_1" xmlns="http://www.w3.org/2000/svg" xmlns:xlink="http://www.w3.org/1999/xlink" x="0px" y="0px"
	 width="1920px" height="1080px" viewBox="0 0 1920 1080" enable-background="new 0 0 1920 1080" xml:space="preserve" fill="{{ include.fill_color }}">
<g>
	<path d="M905.304,120.192c39.762,9.566,64.23,49.549,54.665,89.311c-9.566,39.762-43.285,96.694-96.356,83.922
		c-50.214-12.087-57.196-78.807-47.619-118.568C825.559,135.105,865.542,110.626,905.304,120.192z"/>
	<path d="M887.627,701.62H762.679c-33.001,0-59.759,26.758-59.759,59.759l0,0h244.466l0,0
		C947.386,728.367,920.629,701.62,887.627,701.62z"/>
	<path d="M728.443,659.56l-48.59-277.626c-5.685-32.505-36.66-54.253-69.166-48.558l0,0l69.188,395.36l0,0
		C712.391,723.03,734.128,692.064,728.443,659.56z"/>
	<path d="M902.562,913.665h-59.421V728.726h-35.996v184.939h-59.422c-13.31,0-24.109,10.79-24.109,24.11s10.811,24.1,24.12,24.1
		c13.311,0,24.11-10.789,24.11-24.11h106.618c0,13.311,10.79,24.11,24.11,24.11s24.11-10.789,24.11-24.11
		C926.683,924.444,915.883,913.665,902.562,913.665z"/>
	<rect x="947.386" y="515.12" width="361.927" height="42.726"/>
	<rect x="1121.884" y="529.379" width="187.429" height="432.496"/>
	<path d="M1059.404,498.14c0,9.376,7.604,16.98,16.98,16.98h156.188c9.376,0,16.98-7.604,16.98-16.98H1059.404z"/>
	<path d="M1228.354,509.857c9.05,2.457,18.373-2.891,20.83-11.939l40.901-150.736c2.457-9.049-2.891-18.372-11.939-20.83
		L1228.354,509.857z"/>
	<path d="M1062.146,624.375c-18.815-61.994-181.648-20.683-174.962-69.493c1.002-7.33,1.962-14.312,2.879-20.999
		c-23.098,4.894-41.797,8.152-50.762,8.152c-3.28,0-5.632-0.369-7.626-1.202c-4.018-1.677-16.242-6.761-30.48-70.137
		c-8.796-39.171-6.539-88.53-9.06-134.589l29.015,49.275l61.13,29.342l14.217,23.045l7.457-0.971
		c2.595-17.213,4.883-31.588,7.172-45.479c13.784-83.679-67.933-118.146-127.006-80.726c-36.914,23.383-48.832,60.603-52.829,99.173
		c-5.843,51.247-5.357,123.641-0.222,184.422c2.774,21.843,4.219,45.173,16.622,62.955c47.588,68.195,210.23,12.529,221.548,41.059
		c5.854,14.755-10.009,134.462-17.055,190.371c-2.848,22.612-11.327,46.586,4.788,62.701c18.088,14.586,49.476,15.409,59.58-5.526
		C1047.497,881.539,1069.846,649.719,1062.146,624.375z"/>
	<path d="M792.136,336.098c5.379,98.106,27.296,190.139,42.915,196.636c11.918,4.957,135.021-26.304,192.713-41.407
		c16.358-4.282,26.188-20.957,22.012-37.336l0,0c-3.84-15.071-18.331-24.901-33.75-22.908l-126.32,16.391l-7.425-32.77
		L792.136,336.098z"/>
</g>
</svg>
