<?xml version="1.0" encoding="utf-8"?>
<!-- Generator: Adobe Illustrator 23.1.0, SVG Export Plug-In . SVG Version: 6.00 Build 0)  -->
<svg version="1.1" id="Layer_1" xmlns="http://www.w3.org/2000/svg" xmlns:xlink="http://www.w3.org/1999/xlink" x="0px" y="0px"
	 viewBox="0 0 1024 1024" style="enable-background:new 0 0 1024 1024;" xml:space="preserve" fill="{{ include.fill_color }}">
<g>
	<path d="M374.43,250.76c48.26,0.04,65.51-55.86,65.54-92.01c0.03-36.15-29.25-65.48-65.4-65.51c-36.15-0.03-65.48,29.25-65.51,65.4
		C309.02,194.8,328.77,250.72,374.43,250.76z"/>
	<path d="M284.04,503.73c-0.17,31.12-0.45,63-0.73,91.81c8.21-1.07,16.49-2.14,24.79-3.21l-5.16-89.47L284.04,503.73z"/>
	<path d="M285.55,901.39c1.79,16.71,15.9,29.37,32.71,29.37c17.79,0,32.35-14.13,32.87-31.92l4.15-89.89h-73.36
		C282.23,847.66,283.24,879.84,285.55,901.39z"/>
	<path d="M391.81,461.28l31.34,116.82c8.98-0.99,22.05-2.95,37.16-5.21c3.48-0.52,7.09-1.06,10.84-1.62
		c-0.3-5.31-0.62-10.43-0.97-15.34c-1.81-25.57-2.82-61.04-3.47-95.76C446.35,460.65,416.1,461.09,391.81,461.28z"/>
	<path d="M408.52,902.11c1.66,16.28,15.37,28.65,31.71,28.65c8.64,0,16.46-3.42,22.21-9s9.42-13.29,9.67-21.92
		c0.63-21.53,1.34-53.78,1.82-90.89h-73.41L408.52,902.11z"/>
	<path d="M131.18,502.2c4.01-0.78,10.89-2.51,19.05-4.57c-6.02-6.33-9.7-14.87-9.7-24.26c0-7.86,2.55-15.15,6.91-21.03l-27.42,13.2
		c-8.64,3.65-13.4,13-11.26,22.14C111.11,497.76,121.02,504.18,131.18,502.2z"/>
	<path d="M270.52,428.01v-0.03c0.01-0.14,0.01-0.28,0.02-0.42l-0.01-0.01l0.17-11.08l0.21-13.21l0.61-39.06
		c0.13-7.81,5.36-14.34,12.47-16.47c-0.9,17.11-0.08,35.14,0.07,50.02c0.02,1.87,0.04,15.4,0.06,29.41l60.91-6.05
		c0.39-0.64,0.82-1.27,1.28-1.88c4.28-5.71,10.53-9.39,17.61-10.34l101.83-13.71c-0.09-7.03-0.19-13.59-0.28-19.54
		c-0.18-11.44-0.33-20.12-0.75-28c7.26,2.04,12.64,8.64,12.77,16.56l0.45,28.31l0.13,8.53c-5.56,1.19-9.23,2.18-9.23,2.18l-2.99,0.4
		l-100.82,13.58c-9.99,1.34-16.93,10.63-15.38,20.59c1.37,8.75,8.89,15.21,17.75,15.22c24.1,0.03,70.88-0.55,99.16-1.22
		c4.67-0.11,8.83-0.22,12.3-0.34v0c2.01-0.06,3.8-0.13,5.31-0.2c0.39-0.02,0.75-0.03,1.11-0.05c0.09,0,0.18-0.01,0.27-0.01
		c0.17-0.01,0.37-0.02,0.53-0.03c0.85-0.04,1.66-0.11,2.47-0.17c35.3-2.63,40.81-21.03,41.82-41.87c0.02-0.34,0.03-0.68,0.05-1.02
		v-0.06l0.61-14.67l0.99-23.7c2.6-58.56-44.17-107.46-102.78-107.46H319.78c-58.62,0-105.39,48.9-102.78,107.46l1.48,35.43
		l0.46,11.12l-40.64,21.25l-0.49,0.23l92.68-9.2C270.5,428.35,270.51,428.18,270.52,428.01z"/>
	<path d="M855.56,683.4c36.21-3.99,62.33-36.57,58.34-72.77c-3.99-36.21-36.57-62.33-72.77-58.34
		c-36.21,3.99-90.31,27.37-84.99,75.71C761.18,673.72,819.35,687.39,855.56,683.4z"/>
	<path d="M943.79,695.41H80.21c-10.06,0-18.21,8.15-18.21,18.21v68.11c0,10.06,8.15,18.21,18.21,18.21h48.59v117.11h43.12V799.95
		h680.15v117.11h43.12V799.95h48.59c10.06,0,18.21-8.15,18.21-18.21v-68.11C962,703.56,953.85,695.41,943.79,695.41z"/>
	<path d="M129.24,682.07h38.85c0,0,424.71,0,495.82,0c71.09,0,90.55-34.54,82.05-68c-3.56-14.02-12.46-24.24-25.72-31.45
		c-23.23-13.68-61.48-17.14-96.24-17.08c-74.09,0.15-165.66,17.78-200.14,21.55c-2.78,0.33-5.58,0.67-8.39,1l-34.09-127.11
		c-4.47,0.02-8.61,0.04-12.27,0.04l-1.73,0c-12.87-0.03-23.65-9.27-25.64-21.99c-0.39-2.53-0.41-5.06-0.08-7.53l-168.36,16.72
		c-12.93,1.28-22.78,12.16-22.78,25.15v0c0,14.41,12.03,25.91,26.43,25.25l135.39-6.2l6.21,107.65
		c-80.14,10.23-156.47,20.85-194.31,27.92c-12.91,2.42-22.27,13.69-22.27,26.82C101.98,669.86,114.19,682.07,129.24,682.07z
		 M482.75,601.19l137.26-6l54.28-1c0,0-22.59,1.65-53.98,3.97l-136.89,11.34c-12.36,1.03-21.63,11.8-20.77,24.19
		c0.81,11.66,10.33,20.83,22.02,21.16l216.06,6.11l-216.31,2.22c-16.05-0.47-28.99-12.88-30.07-28.91
		C453.18,617.4,465.93,602.58,482.75,601.19z"/>
</g>
</svg>
