<?xml version="1.0" encoding="utf-8"?>
<!-- Generator: Adobe Illustrator 16.0.4, SVG Export Plug-In . SVG Version: 6.00 Build 0)  -->
<!DOCTYPE svg PUBLIC "-//W3C//DTD SVG 1.1//EN" "http://www.w3.org/Graphics/SVG/1.1/DTD/svg11.dtd">
<svg version="1.1" id="Layer_1" xmlns="http://www.w3.org/2000/svg" xmlns:xlink="http://www.w3.org/1999/xlink" x="0px" y="0px"
	 width="1920px" height="1080px" viewBox="0 0 1920 1080" enable-background="new 0 0 1920 1080" xml:space="preserve" fill="{{ include.fill_color }}">
<g>
	<g>
		<path d="M800.299,343.026c46.354,0.042,62.923-53.652,62.944-88.372c0.031-34.72-28.097-62.901-62.817-62.923
			c-34.721-0.031-62.901,28.097-62.923,62.817C737.472,289.269,756.445,342.995,800.299,343.026z"/>
		<path d="M1025.527,122.133c-5.188-11-18.141-15.926-29.373-11.253l0,0c-11.559,4.82-15.936,17.655-12.35,29.658
			c35.901,120.171-41.038,214.893-115.33,214.724c-5.062-0.802-10.241-1.233-15.536-1.233h-48.811h-7.53h-33.392h-15.409
			c-5.295,0-10.473,0.442-15.535,1.233c-74.293,0.169-151.232-94.563-115.33-214.724c3.586-12.002-0.781-24.849-12.351-29.658l0,0
			c-11.222-4.672-24.185,0.253-29.373,11.253c-12.667,26.853-30.407,81.527-16.327,156.495
			c17.393,92.591,119.697,145.23,154.396,160.608c-0.633,15.515,0.084,31.577,0.211,44.982c0.559,56.404-0.296,147.16-0.949,212.425
			c-1.107,112.852-2.943,221.6,2.383,271.339c1.709,16.042,15.262,28.213,31.42,28.213c17.086,0,31.07-13.573,31.566-30.659
			l12.34-267.195c0.242-5.23,4.546-9.344,9.787-9.344c5.084,0,9.324,3.892,9.756,8.954l23.246,270.717
			c1.603,15.631,14.766,27.517,30.459,27.517c8.29,0,15.81-3.29,21.326-8.638c5.516-5.368,9.049-12.772,9.291-21.062
			c1.931-66.172,4.704-237.875-1.855-330.328c-3.312-46.786-3.829-128.155-4.525-173.18c-0.147-9.43-0.273-16.907-0.569-23.615
			c34.415-15.208,137.226-67.879,154.67-160.724C1055.935,203.66,1038.194,148.985,1025.527,122.133z"/>
	</g>
	<g>
		<path d="M1197.811,528.746c34.479,0.032,46.808-39.909,46.828-65.738c0.021-25.829-20.903-46.786-46.732-46.807
			c-25.83-0.021-46.786,20.903-46.808,46.732C1151.078,488.753,1165.189,528.715,1197.811,528.746z"/>
		<path d="M1365.348,364.426c-3.859-8.184-13.5-11.844-21.853-8.374l0,0c-8.606,3.586-11.854,13.142-9.187,22.064
			c26.705,89.396-30.533,159.858-85.788,159.732c-3.766-0.591-7.615-0.918-11.56-0.918h-36.303h-5.6h-24.838h-11.465
			c-3.934,0-7.794,0.327-11.56,0.918c-55.266,0.126-112.493-70.337-85.788-159.732c2.668-8.934-0.58-18.479-9.187-22.064l0,0
			c-8.353-3.48-17.993,0.19-21.853,8.374c-9.419,19.977-22.623,60.645-12.15,116.406c12.941,68.882,89.037,108.031,114.845,119.475
			c-0.475,11.539,0.063,23.488,0.158,33.466c0.411,41.955-0.222,109.466-0.706,158.013c-0.823,83.943-2.194,164.848,1.771,201.847
			c1.276,11.938,11.359,20.988,23.372,20.988c12.709,0,23.108-10.094,23.478-22.803l9.186-198.756c0.18-3.892,3.386-6.95,7.277-6.95
			c3.787,0,6.93,2.89,7.257,6.666l17.286,201.382c1.191,11.633,10.979,20.472,22.665,20.472c6.17,0,11.76-2.447,15.862-6.424
			c4.104-3.997,6.729-9.502,6.908-15.672c1.435-49.223,3.502-176.945-1.381-245.722c-2.469-34.805-2.848-95.333-3.365-128.819
			c-0.105-7.014-0.2-12.582-0.422-17.571c25.598-11.316,102.084-50.498,115.057-119.56
			C1387.971,425.07,1374.777,384.402,1365.348,364.426z"/>
	</g>
	<path d="M714.68,65.391c0,0-7.941,50.889-60.181,60.181c52.239,9.292,60.181,60.18,60.181,60.18s7.941-50.889,60.181-60.18
		C722.621,116.279,714.68,65.391,714.68,65.391z"/>
	<path d="M1341.607,79.819c0,0-10.041,64.357-76.106,76.106c66.055,11.75,76.106,76.106,76.106,76.106s10.04-64.357,76.105-76.106
		C1351.647,144.176,1341.607,79.819,1341.607,79.819z"/>
	<path d="M578.393,452.641c0,0-10.04,64.356-76.105,76.105c66.055,11.75,76.105,76.106,76.105,76.106s10.041-64.356,76.106-76.106
		C588.444,516.997,578.393,452.641,578.393,452.641z"/>
	<path d="M1129.214,263.683c0,0-8.427,54.011-63.872,63.872c55.445,9.861,63.872,63.871,63.872,63.871s8.427-54.01,63.872-63.871
		C1137.641,317.693,1129.214,263.683,1129.214,263.683z"/>
</g>
</svg>
