<?xml version="1.0" encoding="utf-8"?>
<!-- Generator: Adobe Illustrator 23.1.0, SVG Export Plug-In . SVG Version: 6.00 Build 0)  -->
<svg version="1.1" id="Layer_1" xmlns="http://www.w3.org/2000/svg" xmlns:xlink="http://www.w3.org/1999/xlink" x="0px" y="0px"
	 viewBox="0 0 1024 1024" style="enable-background:new 0 0 1024 1024;" xml:space="preserve" fill="{{ include.fill_color }}">
<g>
	<path d="M603.19,62c36.74,0.03,66.5,29.84,66.47,66.59c-0.03,36.74-17.56,93.55-66.61,93.51c-46.41-0.04-66.48-56.88-66.45-93.62
		C536.64,91.73,566.45,61.97,603.19,62z"/>
	<path d="M553.06,277.22c32.61,8.54,52.13,41.9,43.59,74.51s-37.26,78.99-80.79,67.59c-41.19-10.78-45.84-65.9-37.31-98.51
		C487.09,288.19,520.45,268.68,553.06,277.22z"/>
	<g>
		<path d="M722.51,707.73H644.8c7.03,11.5,11.76,24.58,14.19,39.2h63.52v182.54h40.43V746.93v-39.2H722.51z"/>
		<path d="M370.92,741.25c3.8-12.17,8.71-23.46,14.49-33.52H301.1h-40.43v39.2v182.54h40.43V746.93h68.16
			C369.78,745.03,370.33,743.14,370.92,741.25z"/>
	</g>
	<path d="M683.87,669.03c-4.39-29.77-13.25-86.89-21.7-123.01c-11.84-50.64-31.81-94.84-66.25-108.68
		c-10.3-3.78-21.44-5.86-33.08-5.86h-47.38h-7.31h-32.42h-14.96c-11.75,0-22.99,2.11-33.37,5.96
		c-34.44,13.83-54.85,57.94-66.7,108.57c-8.45,36.12-17.31,93.24-21.7,123.01c-1.58,10.75,5.89,20.73,16.65,22.24h0
		c10.26,1.44,19.87-5.36,21.92-15.51c4.55-22.46,12.6-61.06,19.46-87.68c8.33-32.33,24.55-63.29,30.23-73.59l-0.18,4.9
		c-0.3,13.41,0.25,26.95,0.36,38.48c0.32,32.47,0.16,76.66-0.16,120.47c-38.81,23.38-67.54,98.66-45.89,164.06
		c11.76,35.53,36.4,79.92,52.07,106.42c7.59,12.83,24.18,17.02,36.96,9.36h0c11.03-6.61,15.83-20.11,11.46-32.21
		c-8.64-23.91-22.43-64.25-30.1-97.9c-11.73-51.49,5.54-89.3,55.08-88.64c49.54,0.65,70.07,13.69,75.28,59.97
		c3.78,33.55,7.22,94.36,8.82,133.39c0.56,13.62,11.76,24.36,25.39,24.36l0,0c13.65,0,24.86-10.77,25.4-24.41
		c1.66-41.9,5.12-112.02,7.52-150.94c2.92-47.24-13.5-81.17-49.67-101.33c-1.7-38.81-2.28-81.06-2.76-117.59l-0.82-47.53
		c6.05,11.05,21.66,41.26,29.77,72.75c6.86,26.62,14.92,65.21,19.46,87.68c2.06,10.16,11.66,16.96,21.92,15.51h0
		C677.98,689.76,685.46,679.78,683.87,669.03z"/>
	<g>
		<path d="M658.77,233.74h-96.39c-50.73-2.85-84.19-1.24-142.47-6.09c-58.29-4.85-77.18,32.38-63.69,63.14
			c9.2,20.96,45.76,68,68.12,95.83c9.61,11.97,27.26,13.47,38.76,3.32c2.32-2.04,4.21-4.42,5.67-7c2.26-4.04,3.44-8.59,3.44-13.17
			c0-4.19-0.98-8.43-3-12.34l-4.95-7.59l-34.94-53.64l44.48,7.27c12.08-23.52,36.5-38.95,63.76-38.95c6.12,0,12.24,0.8,18.21,2.35
			c38.27,10.02,61.25,49.31,51.23,87.58c-2.45,9.33-6.06,18.84-10.75,27.85l99.61-13.42c-0.1-7.14-0.19-13.81-0.28-19.86
			c-0.18-11.63-0.34-20.45-0.77-28.46c7.39,2.07,12.85,8.78,12.99,16.83l0.45,28.77l0.13,8.43c-0.39,0.08-0.77,0.16-1.15,0.24
			c-5.65,1.21-9.39,2.21-9.39,2.21l-3.04,0.41l-102.46,13.8c-0.46,0.06-0.91,0.14-1.35,0.24c-8.71,1.83-14.79,9.68-14.49,18.49
			c0.02,0.73,0.09,1.47,0.21,2.2c0.63,4.08,2.58,7.66,5.37,10.34c3.3,3.2,7.78,5.12,12.66,5.14c1.8,0,3.72,0,5.73-0.01h0.01
			c25.63-0.05,68.41-0.6,95.04-1.23c4.75-0.11,8.98-0.23,12.51-0.34c0.39-0.01,0.77-0.02,1.15-0.04v0.04
			c2.97-0.09,5.47-0.2,7.34-0.29c38.15-1.98,43.96-21.06,45.01-42.73c0.02-0.34,0.03-0.7,0.05-1.03v-0.07l0.63-14.9l1-24.09
			C765.87,283.44,718.34,233.74,658.77,233.74z"/>
		<path d="M508.91,750.15c-0.09,56.78,0.73,104.38,3.82,133.22c1.81,16.98,16.15,29.85,33.24,29.85c15.28,0,28.21-10.26,32.17-24.35
			c-1.81-32.69-4.18-66.78-6.61-88.3C567.21,762.18,553.65,751.07,508.91,750.15z"/>
		<path d="M634.8,677.88c-4.27-21.07-12.45-60.41-19.34-87.13c-2.17-8.42-4.9-16.75-7.84-24.63c0.1,7.48,0.21,15.34,0.33,23.43
			l2.97,83.06c0,0,2.91,3.23,9.37,8.7c6.08,4.75,11.47,9.99,16.17,15.72h11.19C641.2,692.69,636.43,685.92,634.8,677.88z"/>
		<path d="M659.99,782.44c-1.9,30.9-4.63,84.43-6.48,126.3c4.84,2.85,10.47,4.48,16.44,4.48c8.78,0,16.72-3.48,22.56-9.14
			c5.85-5.67,9.58-13.52,9.83-22.29c0.81-27.84,1.76-73.31,2.18-124.15h-44.76C660.44,765.5,660.52,773.77,659.99,782.44z"/>
		<path d="M696.84,434.93c-21.96,0.52-55.25,0.99-80.6,1.16c0.08,0.21,0.17,0.41,0.26,0.62c11.45,8.41,21.61,20.42,30.34,35.91
			c10.38,18.4,19.04,42.28,25.75,70.96c8.49,36.31,17.35,93.2,21.87,123.88c1.19,8.04-0.84,16.06-5.71,22.56
			c-2.07,2.78-4.56,5.12-7.35,7h23.33c-0.11-60.03-1.24-120.85-4.35-164.77C698.53,506.27,697.51,470.22,696.84,434.93z"/>
	</g>
</g>
</svg>
