<?xml version="1.0" encoding="utf-8"?>
<!-- Generator: Adobe Illustrator 23.1.0, SVG Export Plug-In . SVG Version: 6.00 Build 0)  -->
<svg version="1.1" id="Layer_1" xmlns="http://www.w3.org/2000/svg" xmlns:xlink="http://www.w3.org/1999/xlink" x="0px" y="0px"
	 viewBox="0 0 1024 1024" style="enable-background:new 0 0 1024 1024;" xml:space="preserve" fill="{{ include.fill_color }}">
<g>
	<path d="M746.01,89.66c-27.23-32.64-75.77-37.02-108.4-9.78c-32.64,27.23-68.2,87.22-33.8,128.45
		c36.35,43.57,99.79,16.98,132.42-10.26S773.24,122.29,746.01,89.66z"/>
	<polygon points="328.52,511.68 394.18,511.64 308.2,485.5 315.97,515.3 260.12,501.79 270.51,541.61 335.55,538.63 	"/>
	<polygon points="351.4,590.85 401.81,548.78 319.02,583.75 344.08,601.67 292.53,627.05 326,650.99 374.06,607.05 	"/>
	<path d="M693.54,699.46c-8.19-15.69-53.9-110.52-84.07-163.26l-19.72,190.54c0,0,11.69,7.52,19.72,24.57
		c5.94,12.61,26.97,121.82,37.52,177.83c3.59,19.07,20.24,32.86,39.64,32.86h0c24.33,0,43.13-21.36,40.01-45.49
		C717.34,844.42,699.5,710.87,693.54,699.46z"/>
	<path d="M510.37,214.85c-97.45,30.51-184.55,76.11-187.11,93.51c-1.95,13.27,61.03,129.31,91,183.57
		c8.5,15.38,27.81,21.03,43.25,12.63l0,0c14.2-7.72,20.41-24.84,14.44-39.86l-48.81-123.08l10.78-5.49
		c-0.76,9.84-1.11,19.71-1.28,29.43c0.06,0.11,33.14,61.54,46.69,89.15c13.56,27.63,5.63,52.7-17.91,62.43
		c-8.91,3.68-18.51,3.84-27,2.62c2.88,22.7,8.1,44.86,17.28,65.44c25.58,57.31,11.26,150.09,8.19,174.83
		c-2.1,16.89-52.62,87.69-84.46,130.9c-14.17,19.23-10.69,46.19,7.91,61.19l0,0c18.8,15.17,46.24,12.63,61.93-5.74
		c40.29-47.19,110.52-131.7,122.08-160.6c16.37-40.93,39.91-389.91,54.24-476.89C634.33,231.39,568.33,194.51,510.37,214.85z"/>
</g>
</svg>
