<?xml version="1.0" encoding="utf-8"?>
<!-- Generator: Adobe Illustrator 23.1.0, SVG Export Plug-In . SVG Version: 6.00 Build 0)  -->
<svg version="1.1" id="Layer_1" xmlns="http://www.w3.org/2000/svg" xmlns:xlink="http://www.w3.org/1999/xlink" x="0px" y="0px"
	 viewBox="0 0 1024 1024" style="enable-background:new 0 0 1024 1024;" xml:space="preserve" fill="{{ include.fill_color }}">
<g>
	<polygon points="347.54,529.58 397.66,545.66 338.45,504.61 337.07,529.27 297.76,505.26 295.92,538.2 346.29,551.88 	"/>
	<polygon points="342.36,642.04 380.13,606.01 361.7,593.41 401.39,558.84 335.63,588.27 356.02,602.21 315.12,623.42 	"/>
	<polygon points="626.34,502.29 676.46,486.21 677.71,508.51 728.08,494.83 726.24,461.89 686.93,485.9 685.55,461.24 	"/>
	<polygon points="688.37,544.9 622.61,515.47 662.3,550.04 643.87,562.64 681.64,598.67 708.88,580.05 667.98,558.84 	"/>
	<path d="M582.65,373.01L582.65,373.01c0,0,42.47,2.57,37.32,16.18c-5.15,13.61-15.13,44.17-15.13,44.17l9.62,52.07
		c0,0,84.97-97.9,70.85-122.61c-14.11-24.71-86.83-77.86-155.01-71.68l0,0c-1.7,0.05-3.41,0.2-5.13,0.48l-94.31,15.24
		c-0.87,0.14-1.73,0.32-2.58,0.52c-61.45,12.84-109.9,67.05-119.45,93.44c-9.68,26.76,101.63,115.01,101.63,115.01l-4.27-52.95
		c0,0-21.07-34.73-28.47-47.26c-7.4-12.52,28.06-23.75,28.09-23.76c7.29,45.77,14.52,108.28,15.18,178.62
		c1.27,135.93-60.76,265.71-92.64,323.3c-9.71,17.54-3.5,39.61,13.91,49.55l0,0c15.83,9.04,35.85,5.06,47.08-9.28
		c31.93-40.76,91.67-136.46,122.02-309.88c0.76-4.37,4.54-7.57,8.97-7.57c4.1,0,7.71,2.73,8.78,6.69
		c7.83,28.79,35,147.39-1.28,294.94c-5.17,21.01,9.55,41.69,31.1,43.62h0c15.93,1.43,30.79-8.04,36.3-23.05
		c17.82-48.55,51.17-162.11,35.85-300C619.73,536.61,598.94,439.4,582.65,373.01z"/>
	<path d="M481.5,284.09c44.98-25.21,31.81-86.3,12.93-119.99s-61.5-45.7-95.2-26.82c-33.69,18.88-45.7,61.5-26.82,95.2
		C391.29,266.17,438.95,307.94,481.5,284.09z"/>
	<path d="M636.59,175.26c0.16-25.66-93.13,3.2-93.13,3.2C578.95,170.67,636.44,197.57,636.59,175.26z"/>
	<path d="M573.75,63.28c-21.94-13.3-45.03,81.58-45.03,81.58C540.24,110.4,592.82,74.84,573.75,63.28z"/>
</g>
</svg>
