<?xml version="1.0" encoding="utf-8"?>
<!-- Generator: Adobe Illustrator 23.1.0, SVG Export Plug-In . SVG Version: 6.00 Build 0)  -->
<svg version="1.1" id="Layer_1" xmlns="http://www.w3.org/2000/svg" xmlns:xlink="http://www.w3.org/1999/xlink" x="0px" y="0px"
	 viewBox="0 0 1024 1024" style="enable-background:new 0 0 1024 1024;" xml:space="preserve" fill="{{ include.fill_color }}">
<g>
	<polygon points="686.29,621.21 687.89,649.82 752.52,632.27 750.17,590 699.72,620.81 697.96,589.17 621.97,641.84 	"/>
	<polygon points="701.57,696.52 617.19,658.75 668.12,703.11 644.47,719.28 692.93,765.51 727.88,741.62 675.41,714.4 	"/>
	<path d="M528.6,224.36c44.36,24.86,94.04-18.68,113.72-53.81C662,135.43,649.49,91,614.36,71.32
		c-35.12-19.68-79.55-7.17-99.24,27.96C495.45,134.4,481.72,198.08,528.6,224.36z"/>
	<path d="M654.1,419.66c-4.3-17.83-14.41-57.79-28.5-100.73c-19.02-57.97-69.82-71.55-132.99-94.2
		c-63.17-22.64-116.09-5.34-151.41,125.9c-19.05,70.79-52.51,240.25-69.02,325.69c-4.86,25.14,16.35,47.65,41.74,44.3l103.93-13.72
		l17.77,223.66c1.41,17.75,16.23,31.44,34.04,31.44h0c19.02,0,34.37-15.53,34.14-34.55c-0.62-50.85-1.72-148.78-2.1-231.61
		l69.11-9.12c17.35-2.29,31.55-18.48,31.55-35.99v0c0-16.28-13.31-28.98-29.57-28.23l-71.21,3.31l-89.83,4.17l-48.15,2.24
		l16.81-48.21c2.02-5.79,7.48-9.67,13.61-9.67c7.52,0,13.77,5.78,14.37,13.27l2.66,33.51l90.57-4.28
		c0.1-23.89,0.35-42.74,0.82-53.37c2.72-61.59,59.56-183.06,59.56-183.06l22.87,66.22l-31.6,146.25
		c-3.05,15.14,7.1,27.52,22.54,27.52c16.7,5.05,34.22-4.96,38.35-21.91l39.89-159.55C655.6,432.61,655.63,426,654.1,419.66z
		 M491.3,549.22c-7.05,5.36-15.45,8.19-24.28,8.19c0,0,0,0,0,0c-13.71,0-26.33-6.87-33.75-18.36
		c-72.25-111.8-73.51-128.2-73.92-133.59c-1.83-23.82,10.16-83.39,10.23-85.93c0,0-1.81,61.59,0,85.14
		c1.29,16.79,46.48,88.84,72.31,128.81c9.45,14.62,29.34,18.1,43.2,7.57c11.45-8.7,15.08-24.32,8.65-37.18l-59.56-119.12
		l29.75-140.09l-18.96,138.71l57.95,115.91C511.56,516.53,506.67,537.54,491.3,549.22z"/>
</g>
</svg>
