<?xml version="1.0" encoding="utf-8"?>
<!-- Generator: Adobe Illustrator 23.1.0, SVG Export Plug-In . SVG Version: 6.00 Build 0)  -->
<svg version="1.1" id="Layer_1" xmlns="http://www.w3.org/2000/svg" xmlns:xlink="http://www.w3.org/1999/xlink" x="0px" y="0px"
	 viewBox="0 0 1024 1024" style="enable-background:new 0 0 1024 1024;" xml:space="preserve" fill="{{ include.fill_color }}">
<g>
	<g>
		<polygon points="421.57,95.12 442.31,62 469.36,109.39 484.89,84.6 522.85,161.04 480.04,115.7 466,138.12 		"/>
		<polygon points="382.16,204.73 376.88,166.01 428.01,185.09 424.06,156.1 502.16,190.5 440.25,183.09 443.82,209.3 		"/>
	</g>
	<path d="M560.19,557.63c28.66,50.08,72.07,140.14,79.84,155.04c5.65,10.83,22.6,137.67,31.44,206.13c2.96,22.92-14.89,43.2-38,43.2
		h0c-18.43,0-34.24-13.09-37.65-31.2c-10.02-53.2-29.99-156.9-35.63-168.88c-7.63-16.2-18.73-23.34-18.73-23.34L560.19,557.63z"/>
	<path d="M568.33,167.28c18.96,17.49,42.2,41.92,64.68,65.54c5.47,5.74,11.02,11.59,16.51,17.32c10.67-7.53,20.06-16.26,27.27-24.68
		c26.25-30.67,22.67-76.81-8-103.06c-30.67-26.25-76.81-22.67-103.06,8c-6.27,7.32-12.4,16.43-17.57,26.49
		C555.65,158.45,562.61,162,568.33,167.28z"/>
	<path d="M666.52,286.15c-8.43-9.91-10.27-11.27-10.39-11.4c-31.15-31.89-68.4-72.79-96.17-98.41
		c-12.27-11.31-31.37-10.61-42.76,1.59c-5.44,5.82-8.18,13.27-8.18,20.73c0,6.92,2.36,13.86,7.1,19.52c0,0,69.95,82.25,69.94,82.24
		c-20.86-20.9-37.62-34.62-37.62-34.62l0,0c-26.05-22.65-67.94-25.41-102.14-3.74c-35.88,22.72-47.84,58.69-51.96,96.13
		c-6.27,49.16-10.91,117.41-0.41,183.82c2.74,21.56,7.69,42.6,16.41,62.14c24.3,54.42,10.69,142.54,7.77,166.02
		c-1.99,16.04-49.97,83.27-80.21,124.31c-13.46,18.26-10.15,43.87,7.51,58.11l0,0c17.85,14.4,43.91,11.99,58.81-5.45
		c38.26-44.81,104.95-125.07,115.93-152.51c13.7-34.24,32.67-295.49,46.3-413.7c0.02-0.01,27.07-1.58,62.18-7.86
		c21.23-3.8,41.56-12.74,49.89-26.57C689.03,324.07,677.59,299.16,666.52,286.15z"/>
</g>
</svg>
