<?xml version="1.0" encoding="utf-8"?>
<!-- Generator: Adobe Illustrator 23.1.0, SVG Export Plug-In . SVG Version: 6.00 Build 0)  -->
<svg version="1.1" id="Layer_1" xmlns="http://www.w3.org/2000/svg" xmlns:xlink="http://www.w3.org/1999/xlink" x="0px" y="0px"
	 viewBox="0 0 1024 1024" style="enable-background:new 0 0 1024 1024;" xml:space="preserve" fill="{{ include.fill_color }}">
<g>
	<path d="M579.76,373.01L579.76,373.01c0,0,37.88,4.23,36.68,21.06c-1.68,22.31-4.4,90.81-4.4,90.81l14.25,73.74
		c0,0,70.25-171.08,56.14-195.79c-14.11-24.71-86.83-77.86-155.01-71.68l0,0c-1.7,0.05-3.41,0.2-5.13,0.48l-94.31,15.24
		c-0.87,0.14-1.73,0.32-2.58,0.52c-61.45,12.84-109.9,67.05-119.45,93.44c-9.68,26.76,103.81,171.24,103.81,171.24l-3.3-72.66
		c0,0-24.31-61.36-30.29-79.79c-6.02-15.09,26.73-27.73,26.76-27.74c7.29,45.77,14.52,108.28,15.18,178.62
		c1.27,135.93-60.76,265.71-92.64,323.3c-9.71,17.54-3.5,39.61,13.91,49.55l0,0c15.83,9.04,35.85,5.06,47.08-9.28
		c31.93-40.76,91.67-136.46,122.02-309.88c0.76-4.37,4.54-7.57,8.97-7.57h0c4.1,0,7.71,2.73,8.78,6.69
		c7.83,28.79,35,147.39-1.28,294.94c-5.17,21.01,9.55,41.69,31.1,43.62h0c15.93,1.43,30.79-8.04,36.3-23.05
		c17.82-48.55,51.17-162.11,35.85-300C616.84,536.61,596.05,439.4,579.76,373.01z"/>
	<path d="M478.61,284.09c44.98-25.21,31.81-86.3,12.93-119.99s-61.5-45.7-95.2-26.82c-33.69,18.88-45.7,61.5-26.82,95.2
		C388.4,266.17,436.06,307.94,478.61,284.09z"/>
	<path d="M633.7,175.26c0.16-25.66-93.13,3.2-93.13,3.2C576.06,170.67,633.56,197.57,633.7,175.26z"/>
	<path d="M570.86,63.28c-21.94-13.3-45.03,81.58-45.03,81.58C537.35,110.4,589.94,74.84,570.86,63.28z"/>
	<path d="M326.2,519.33c-44.32,44.32-44.32,116.42,0,160.74c2.73,2.73,7.17,2.73,9.9,0c2.73-2.73,2.73-7.17,0-9.9
		c-38.86-38.86-38.86-102.08,0-140.94c1.37-1.37,2.05-3.16,2.05-4.95s-0.68-3.58-2.05-4.95
		C333.37,516.59,328.93,516.59,326.2,519.33z"/>
	<path d="M371.1,552c0-1.79-0.68-3.58-2.05-4.95c-2.73-2.73-7.17-2.73-9.9,0c-29.03,29.03-29.03,76.27,0,105.3
		c2.73,2.73,7.17,2.73,9.9,0c2.73-2.73,2.73-7.17,0-9.9c-23.57-23.57-23.57-61.93,0-85.5C370.41,555.58,371.1,553.79,371.1,552z"/>
	<path d="M697.8,505.59c-2.73-2.73-7.17-2.73-9.9,0c-1.37,1.37-2.05,3.16-2.05,4.95s0.68,3.58,2.05,4.95
		c38.86,38.86,38.86,102.08,0,140.94c-2.73,2.73-2.73,7.17,0,9.9c2.73,2.73,7.17,2.73,9.9,0
		C742.12,622.01,742.12,549.9,697.8,505.59z"/>
	<path d="M664.85,533.31c-2.73-2.73-7.17-2.73-9.9,0c-1.37,1.37-2.05,3.16-2.05,4.95s0.68,3.58,2.05,4.95
		c23.57,23.57,23.57,61.93,0,85.5c-2.73,2.73-2.73,7.17,0,9.9c2.73,2.73,7.17,2.73,9.9,0C693.88,609.58,693.88,562.34,664.85,533.31
		z"/>
</g>
</svg>
