<?xml version="1.0" encoding="utf-8"?>
<!-- Generator: Adobe Illustrator 23.1.0, SVG Export Plug-In . SVG Version: 6.00 Build 0)  -->
<svg version="1.1" id="Layer_1" xmlns="http://www.w3.org/2000/svg" xmlns:xlink="http://www.w3.org/1999/xlink" x="0px" y="0px"
	 viewBox="0 0 1024 1024" style="enable-background:new 0 0 1024 1024;" xml:space="preserve" fill="{{ include.fill_color }}">
<g>
	<path d="M778.96,262.46c46.1,0.04,62.57-53.35,62.6-87.88c0.03-34.53-27.94-62.55-62.47-62.58s-62.55,27.94-62.58,62.47
		C716.48,209,735.34,262.43,778.96,262.46z"/>
	<path d="M831.31,273.41h-48.54h-7.48h-33.21h-15.33c-55.99,0-100.67,46.71-98.18,102.64l6.54,156.74
		c0.51,11.5,9.99,20.56,21.5,20.56c11.74,0,21.32-9.42,21.52-21.16l2.53-161.38c0.12-7.45,5.11-13.7,11.91-15.74
		c-0.87,16.35-0.07,33.57,0.07,47.79c0.55,56.09-0.3,146.35-0.94,211.24c-1.1,112.22-2.93,220.38,2.37,269.83
		c1.7,15.95,15.18,28.06,31.24,28.06c16.99,0,30.9-13.5,31.39-30.49l12.28-265.71c0.24-5.2,4.52-9.29,9.73-9.29
		c5.06,0,9.27,3.87,9.7,8.91l23.11,269.22c1.59,15.55,14.68,27.37,30.29,27.37c8.25,0,15.72-3.27,21.21-8.59
		c5.49-5.34,9-12.7,9.24-20.95c1.92-65.8,4.68-236.55-1.84-328.49c-3.29-46.53-3.81-127.45-4.5-172.22
		c-0.17-10.93-0.31-19.22-0.72-26.74c6.94,1.95,12.08,8.25,12.2,15.81l2.53,161.38c0.2,11.74,9.77,21.16,21.52,21.16h0
		c11.51,0,20.99-9.06,21.5-20.56l6.54-156.74C931.98,320.12,887.3,273.41,831.31,273.41z"/>
	<path d="M512.67,438.44c33.61,0.03,45.62-38.9,45.64-64.07c0.02-25.18-20.37-45.6-45.55-45.62c-25.18-0.02-45.6,20.37-45.62,45.55
		C467.11,399.47,480.87,438.41,512.67,438.44z"/>
	<path d="M550.84,446.42h-76.23c-40.82,0-73.4,34.05-71.58,74.84l1,23.98l-23.55-4.98l6.2-148.63
		c2.42-54.31-40.96-99.66-95.32-99.66h-47.13h-7.27h-32.24h-14.88c-54.36,0-97.74,45.35-95.32,99.66l6.35,152.19
		c0.5,11.17,9.7,19.97,20.87,19.97c11.4,0,20.7-9.14,20.89-20.55l2.46-156.69c0.12-7.24,4.96-13.3,11.56-15.28
		c-0.84,15.88-0.07,32.59,0.07,46.4c0.29,29.1,0.18,67.67-0.07,106.9h0l-47.08,169.98h45.5c-0.78,81.22-0.96,152.91,3.03,190.21
		c1.65,15.49,14.74,27.24,30.33,27.24c16.49,0,30-13.11,30.48-29.6l8.68-187.85h28.16l16.39,190.88
		c1.55,15.09,14.26,26.57,29.41,26.57c8.01,0,15.26-3.18,20.59-8.34c5.33-5.18,8.74-12.33,8.97-20.34
		c1.13-38.73,2.56-114.9,2.1-188.77h46.08l-51.93-169.98c-1.5-43.05-1.9-94.99-2.4-127.4c-0.16-10.61-0.31-18.67-0.7-25.96
		c6.74,1.89,11.73,8.01,11.85,15.35l2.46,156.69c0.15,9.24,6.29,16.99,14.67,19.6l0,0c19.3,7.04,37.94,13.96,52.33,19.3
		c7.31,2.7,13.52,5,18.17,6.68c13.8,5.02,16.27-7.52,16.39-15.36v-0.04l0.88-55.97c0.09-5.44,3.72-9.99,8.68-11.48
		c-0.63,11.92-0.05,24.47,0.05,34.84c0.4,40.9-0.21,106.7-0.68,154.02c-0.8,81.81-2.14,160.67,1.72,196.73
		c1.24,11.63,11.07,20.45,22.77,20.45c12.39,0,22.53-9.84,22.89-22.23l8.95-193.72c0.18-3.79,3.3-6.77,7.09-6.77
		c3.69,0,6.76,2.83,7.08,6.5l16.85,196.28c1.16,11.33,10.7,19.96,22.08,19.96c6.02,0,11.47-2.39,15.47-6.27
		c4-3.89,6.56-9.26,6.74-15.27c1.4-47.97,3.4-172.46-1.35-239.49c-2.4-33.93-2.77-92.92-3.28-125.56
		c-0.12-7.96-0.22-14.02-0.52-19.49c5.07,1.42,8.81,6.02,8.9,11.53l1.85,117.65c0.14,8.56,7.13,15.43,15.69,15.43
		c4.2,0,8.02-1.65,10.84-4.35c2.82-2.7,4.64-6.45,4.83-10.65l4.76-114.28C624.23,480.47,591.65,446.42,550.84,446.42z"/>
	<path d="M240.52,281.34c44.76,0.04,60.75-51.8,60.78-85.33c0.03-33.53-27.13-60.73-60.66-60.76s-60.73,27.13-60.76,60.66
		C179.85,229.44,198.17,281.31,240.52,281.34z"/>
</g>
</svg>
