<?xml version="1.0" encoding="utf-8"?>
<!-- Generator: Adobe Illustrator 23.1.0, SVG Export Plug-In . SVG Version: 6.00 Build 0)  -->
<svg version="1.1" id="Layer_1" xmlns="http://www.w3.org/2000/svg" xmlns:xlink="http://www.w3.org/1999/xlink" x="0px" y="0px"
	 viewBox="0 0 1024 1024" style="enable-background:new 0 0 1024 1024;" xml:space="preserve" fill="{{ include.fill_color }}">
<g>
	<path d="M561.87,62.03c-37.34-1.09-68.5,28.3-69.59,65.65c-1.09,37.34,17.68,95.69,64.85,97.07c49.85,1.45,69.3-55.78,70.39-93.13
		C628.61,94.27,599.21,63.12,561.87,62.03z"/>
	<path d="M517.22,529.39c-9.3-15.9-52.78-100.17-63.88-121.76c-11.1-21.59-12.6-29.09-10.2-57.28c2.4-28.19,11.52-91.44,11.52-91.44
		l-3.43,111c-0.29,9.24,1.8,18.4,6.05,26.6l64.02,123.49c6.24,12.03,21.17,16.53,33.02,9.95c10.79-5.99,15.28-19.18,10.41-30.51
		l-48.61-113.08c-2.66-6.19-3.55-12.99-2.56-19.65l15.91-107.81c0,0-11.04,104.63-5.64,122.33c1.98,6.47,6.81,18.82,12.81,33.31
		c0.35-70.84,26.3-153.88-4.64-180.95c-48.52-42.45-94.43-9.73-122.4,87.52s-4.8,140.67,10.02,210.14
		c14.07,65.93,45.24,152.93,39.23,243.1c-3.68,55.34-8.33,114.36-11.37,151.71c-1.65,20.24,15.08,37.21,35.35,35.85h0
		c14.96-1,27.4-11.88,30.37-26.58c12.01-59.42,42.06-190.15,53.26-269.61c7.36-52.19,1.26-91.33-7.31-127.41
		C546.78,546.35,526.52,545.29,517.22,529.39z"/>
</g>
</svg>
