<svg xmlns="http://www.w3.org/2000/svg" viewBox="0 0 600.73 638.79"><defs><style>.cls-1{fill:#1fa5c9;}.cls-2{fill:#8ebc11;}</style></defs><g id="Layer_2" data-name="Layer 2"><g id="Layer_1-2" data-name="Layer 1"><path class="cls-1" d="M0,563.51v-.15c0-15.11,11.39-27.49,27.72-27.49,10,0,16,3.34,21,8.2l-7.44,8.59c-4.11-3.73-8.28-6-13.6-6-9,0-15.41,7.44-15.41,16.55v.15c0,9.11,6.3,16.71,15.41,16.71,6.08,0,9.8-2.43,14-6.23l7.44,7.52c-5.47,5.85-11.55,9.49-21.8,9.49C11.62,590.85,0,578.78,0,563.51Z"/><path class="cls-1" d="M58.39,536.78h11.7v21H91.66v-21h11.69v53.16H91.66V568.6H70.09v21.34H58.39Z"/><path class="cls-1" d="M116.64,536.78h11.69v53.16H116.64Z"/><path class="cls-1" d="M141.62,536.78h24.3c6.76,0,12,1.9,15.49,5.39,3,3,4.56,7.14,4.56,12.16v.15c0,8.58-4.63,14-11.39,16.48l13,19H173.9l-11.4-17h-9.18v17h-11.7Zm23.54,25.82c5.7,0,9-3,9-7.52v-.15c0-5-3.49-7.59-9.18-7.59H153.32V562.6Z"/><path class="cls-1" d="M194.17,563.51v-.15c0-15.11,11.92-27.49,28.32-27.49s28.18,12.23,28.18,27.34v.15c0,15.11-11.92,27.49-28.33,27.49S194.17,578.63,194.17,563.51Zm44.27,0v-.15c0-9.11-6.68-16.7-16.1-16.7s-16,7.44-16,16.55v.15c0,9.11,6.69,16.71,16.1,16.71S238.44,572.63,238.44,563.51Z"/><path class="cls-1" d="M261.07,536.78h21.72c12.68,0,20.35,7.52,20.35,18.38v.15c0,12.31-9.57,18.68-21.49,18.68h-8.89v16H261.07Zm21,26.81c5.85,0,9.26-3.49,9.26-8.05v-.15c0-5.24-3.64-8-9.49-8h-9v16.25Z"/><path class="cls-1" d="M311.79,536.78h24.3c6.76,0,12,1.9,15.5,5.39,3,3,4.55,7.14,4.55,12.16v.15c0,8.58-4.63,14-11.39,16.48l13,19H344.07l-11.39-17h-9.19v17h-11.7Zm23.55,25.82c5.69,0,9-3,9-7.52v-.15c0-5-3.5-7.59-9.19-7.59H323.49V562.6Z"/><path class="cls-1" d="M384.92,536.4h10.79l22.78,53.54H406.26L401.4,578H378.92l-4.86,11.92H362.14Zm12.3,31.29-7.06-17.24-7.06,17.24Z"/><path class="cls-1" d="M420.91,563.51v-.15c0-15.11,11.39-27.49,27.72-27.49,10,0,16,3.34,21,8.2l-7.44,8.59c-4.1-3.73-8.28-6-13.59-6-9,0-15.42,7.44-15.42,16.55v.15c0,9.11,6.3,16.71,15.42,16.71,6.07,0,9.79-2.43,14-6.23l7.44,7.52c-5.47,5.85-11.54,9.49-21.79,9.49C432.53,590.85,420.91,578.78,420.91,563.51Z"/><path class="cls-1" d="M491.69,547.57H475.51V536.78h44v10.79H503.38v42.37H491.69Z"/><path class="cls-1" d="M529.05,536.78h11.69v53.16H529.05Z"/><path class="cls-1" d="M551.68,563.51v-.15c0-15.11,11.39-27.49,27.71-27.49,10,0,16,3.34,21,8.2l-7.44,8.59c-4.1-3.73-8.28-6-13.59-6-9,0-15.42,7.44-15.42,16.55v.15c0,9.11,6.31,16.71,15.42,16.71,6.07,0,9.8-2.43,14-6.23l7.44,7.52c-5.46,5.85-11.54,9.49-21.79,9.49C563.29,590.85,551.68,578.78,551.68,563.51Z"/><path class="cls-2" d="M96.64,621.23a4.87,4.87,0,0,1-3.11,4.62,5.82,5.82,0,0,1,3.83,5.34c0,5.34-4,7-9,7H77v-24H88.39C93.12,614.28,96.64,616.4,96.64,621.23ZM81.48,623.9h6.91c2.85,0,3.77-1.2,3.77-2.57,0-1.09-.89-2.94-3.77-2.94H81.48Zm0,10.13h6.91c1.85,0,4.49-.62,4.49-2.88s-2.64-3.28-4.49-3.28H81.48Z"/><path class="cls-2" d="M124.4,633.72H111.87l-2.05,4.52h-4.89l10.74-24h4.93l10.75,24h-4.93Zm-6.26-14.41-4.45,10.2h8.9Z"/><path class="cls-2" d="M159.92,635.23a12.61,12.61,0,0,1-9.1,3.56c-8.9,0-12.66-6.13-12.7-12.36s4-12.63,12.7-12.63a12.42,12.42,0,0,1,8.8,3.66l-3,2.91a8.2,8.2,0,0,0-5.78-2.25c-5.78,0-8.28,4.31-8.25,8.31s2.33,8.11,8.25,8.11a8.82,8.82,0,0,0,6-2.43Z"/><path class="cls-2" d="M188.57,614.42l-10.64,11.46L189.46,638v.28h-5.58l-10-10.61v10.61h-4.51v-24h4.51v10.13L183,614.28h5.61Z"/><path class="cls-2" d="M223.65,631.19h-6.77v7h-4.52v-24l11.29,0C235.36,614.25,235.39,631.19,223.65,631.19Zm-6.77-4.14h6.77c5.79,0,5.75-8.49,0-8.49h-6.77Z"/><path class="cls-2" d="M259.35,633.72H246.82l-2,4.52h-4.89l10.74-24h4.93l10.75,24h-4.93Zm-6.26-14.41-4.45,10.2h8.89Z"/><path class="cls-2" d="M274.85,638.24v-24h4.49v24Z"/><path class="cls-2" d="M306.17,614.25h4.52v24h-2.81v0l-12.6-16.19v16.16h-4.51v-24h3.66l11.74,14.86Z"/><path class="cls-2" d="M351.75,638.27v-9.68H340v9.68h-4.52V614.32H340v10.09h11.77V614.32h4.49v23.95Z"/><path class="cls-2" d="M385.19,638.24H367.26v-24h17.93v4.38H371.74v5.51h13v4.21h-13v5.41h13.45Z"/><path class="cls-2" d="M412.54,633.72H400L398,638.24h-4.89l10.74-24h4.93l10.75,24h-4.93Zm-6.26-14.41-4.45,10.2h8.89Z"/><path class="cls-2" d="M433.25,614.28v19.78h12.32v4.18H428.73v-24Z"/><path class="cls-2" d="M455.63,638.24v-24h4.48v24Z"/><path class="cls-2" d="M486.94,614.25h4.52v24h-2.81v0l-12.59-16.19v16.16h-4.52v-24h3.67l11.73,14.86Z"/><path class="cls-2" d="M520.24,620.13a9.15,9.15,0,0,0-6.09-2.39c-5.13,0-8.25,3.9-8.25,8.83,0,3.93,2.3,8,8.25,8a7.94,7.94,0,0,0,5.41-1.92v-4.24h-6.13v-4H523.7v10.09a11.92,11.92,0,0,1-9.55,4.32c-9,0-12.66-5.92-12.66-12.22,0-6.74,4.21-13,12.66-13a12.64,12.64,0,0,1,8.9,3.66Z"/><path class="cls-1" d="M387.81,67.65l.15-.38c.11-.25.24-.63.41-1.13a33,33,0,0,0,1.09-4.55A58.54,58.54,0,0,0,389.67,44a53,53,0,0,0-3.08-12.08,41.78,41.78,0,0,0-7.46-12.36,37.83,37.83,0,0,0-5.83-5.34A40.68,40.68,0,0,0,366.08,10a54.92,54.92,0,0,0-17.55-4.4,80.63,80.63,0,0,0-9.77-.32c-1.67,0-3.35.12-5.05.26-1.28.07-2.56.22-3.84.35-.28,0-.88.1-1.2.16l-.52.1-.58.13c-.38.08-.78.21-1.16.3-.79.23-1.57.48-2.35.78a41.53,41.53,0,0,0-4.65,2.07,54,54,0,0,0-8.78,5.78,61,61,0,0,0-7.8,7.55,67.47,67.47,0,0,0-6.55,9c-.48.82-1,1.62-1.42,2.46s-.91,1.67-1.34,2.53c-.86,1.7-1.63,3.43-2.47,5.32-1.65,3.7-3.26,7.38-4.8,11.14a108.2,108.2,0,0,0-4.08,11.28A53.21,53.21,0,0,0,280.11,76a94.1,94.1,0,0,0,0,12.22q.21,3.18.43,6.38c.13,2.24.22,4.46.25,6.72a74.38,74.38,0,0,1-1.06,13.79,61.85,61.85,0,0,1-1.67,6.9,57.62,57.62,0,0,1-2.59,6.68,55.66,55.66,0,0,1-7.68,12.05,72.3,72.3,0,0,1-10.06,9.82,100.53,100.53,0,0,1-11.34,7.89l-2.95,1.73-3,1.62c-1,.55-2,1-3,1.54a36.28,36.28,0,0,1-3.34,1.57,44.73,44.73,0,0,1-7,2c-2.28.5-4.52.87-6.73,1.2-8.51,1.26-17.1,1.95-25.57,3.44a79.8,79.8,0,0,0-11.73,2.87,30.42,30.42,0,0,0-9.64,5.07,17,17,0,0,0-1.76,1.73l-.29.34c-.12.15,0-.08,0,0l-.93,1.24-.33.51c-.42.61-.9,1.45-1.33,2.24l-.63,1.22-.58,1.27A67.67,67.67,0,0,0,164,199c-.93,3.77-1.66,7.6-2.26,11.42-1.17,7.66-1.93,15.3-2.44,22.75-1,14.93-1.17,29.16-1.32,42.31-.15,21.23.19,42.46,0,63.69-.07,7.7-.31,13.75-.52,17.87-.11,2.1-.25,4.21-.42,6.31,0,0,0-2.2-.17-6.32-.88-27.18-3.56-54.28-4.67-81.46-.56-13.2-.83-27.54-.31-42.78.27-7.62.73-15.48,1.8-23.52.53-4,1.2-8.09,2.11-12.19a73.28,73.28,0,0,1,3.82-12.41l.68-1.55.76-1.55c.55-1,1.07-2,1.8-3.13l.52-.79.92-1.27a3.66,3.66,0,0,1,.23-.29c.15-.19.3-.38.46-.56a25.14,25.14,0,0,1,2.66-2.7A38.1,38.1,0,0,1,180.1,166a88.47,88.47,0,0,1,13.06-3.34c4.35-.8,8.7-1.41,13-2s8.61-1.05,12.79-1.69c2.09-.32,4.15-.67,6.13-1.11a37.19,37.19,0,0,0,5.56-1.62c.59-.21,1.69-.78,2.6-1.24s1.9-.94,2.82-1.46l2.79-1.52,2.72-1.59a92.16,92.16,0,0,0,10.3-7.11,63.94,63.94,0,0,0,8.8-8.51,48.64,48.64,0,0,0,6.49-10,49.56,49.56,0,0,0,2.2-5.52,53.88,53.88,0,0,0,1.46-5.79,59.46,59.46,0,0,0,.8-6c.15-2,.24-4.07.25-6.14s0-4.16-.13-6.21-.22-4.34-.33-6.49a102.75,102.75,0,0,1,.21-13.34,62.06,62.06,0,0,1,2.69-13.21,113.41,113.41,0,0,1,4.66-12c1.72-3.81,3.5-7.56,5.27-11.19.87-1.78,1.79-3.71,2.8-5.55.49-.92,1-1.83,1.54-2.73s1.08-1.78,1.64-2.65a74.55,74.55,0,0,1,7.51-9.78,66.9,66.9,0,0,1,8.91-8.13A56.44,56.44,0,0,1,316.74,4a45.85,45.85,0,0,1,5.41-2.16c.92-.3,1.86-.57,2.81-.8.48-.11,1-.23,1.44-.31l.74-.14.79-.11c.56-.08.84-.1,1.44-.15,1.34-.08,2.69-.18,4-.21C335.2,0,337,0,338.73,0a87.86,87.86,0,0,1,10.36.73,57.38,57.38,0,0,1,18.74,5.63,44.46,44.46,0,0,1,7.68,5,41.75,41.75,0,0,1,6.07,6.12,43.12,43.12,0,0,1,7.24,13.61,54.55,54.55,0,0,1,2.48,12.71,58.07,58.07,0,0,1-1.38,17.89,30.55,30.55,0,0,1-1.44,4.5c-.2.49-.37.86-.49,1.1Z"/><path class="cls-1" d="M295.25,113.58c-.09-.69-.18-1.37-.25-2.06a45.44,45.44,0,0,1-.24-6,37.72,37.72,0,0,1,1.49-9.68A31.32,31.32,0,0,1,298.64,90a27.65,27.65,0,0,1,4.25-5.8,29,29,0,0,1,6.32-4.94,36.37,36.37,0,0,1,8.09-3.45,55.65,55.65,0,0,1,19.55-1.89c3.5.2,7.07.62,10.71,1.13s7.33,1.09,11.08,1.52a40,40,0,0,0,11.14,0c1.82-.33,3.86-.78,5.84-1.23,29.39-7,58.58-14.75,88.07-21.29,10-2.21,20.17-4.29,30.73-6,2.64-.42,5.31-.82,8-1.15s5.46-.61,8.35-.71a33.09,33.09,0,0,1,4.61.12l.66.07,1.56.24c.73.11,1.43.24,2.15.39a41.44,41.44,0,0,1,8.67,2.66,22.32,22.32,0,0,1,8.14,5.93,17.19,17.19,0,0,1,2.8,4.73,18.32,18.32,0,0,1,1.18,5.27,26.79,26.79,0,0,1-1.23,9.77,50.89,50.89,0,0,1-3.5,8.41q-1,2-2.16,3.87l-.61,1-.28.44-.41.59c-.51.72-1,1.33-1.49,1.93-2,2.37-4,4.42-6,6.44-4.09,4-8.26,7.81-12.47,11.57-16.81,15-34.05,29.4-50.89,44.3q-12.58,11.1-24.7,22.38c-8.05,7.52-15.87,15.15-23.31,22.91a272.7,272.7,0,0,0-20.74,23.86,121.3,121.3,0,0,0-8.45,12.58,51.16,51.16,0,0,0-5.55,13.05,26.78,26.78,0,0,0-.55,3.22l-.07.8c-.54,8.3-1.07,16.6-1.48,24.91C375.7,297,375.25,315.2,375,332c-.08,8.43-.07,16.5.1,24.16s.4,14.93,1,21.68c.16,1.68.33,3.33.56,4.93.71,4.67,1.5,9.34,2.06,14,.77,5.91,1.32,11.35,1.8,16.26.94,9.83,1.34,17.58,1.6,22.85.13,2.7.21,5.4.27,8.1,0,0-.26-2.81-.85-8.05s-1.56-12.92-3-22.65c-.75-4.86-1.61-10.24-2.7-16.06-.81-4.65-1.8-9.26-2.72-13.88-.32-1.68-.57-3.37-.82-5.09-1.84-13.77-2.52-29.29-3-46.23s-.45-35.27,0-54.68c.19-8.37.46-16.73.87-25.1l.08-1.08a33.19,33.19,0,0,1,.67-4.28,58.32,58.32,0,0,1,6.19-15.3,129.74,129.74,0,0,1,8.84-13.6c12.9-17.36,28.43-33,44.57-48.38,8.08-7.68,16.39-15.21,24.81-22.68,16.83-14.91,34.07-29.35,50.91-44.25,4.17-3.69,8.31-7.4,12.21-11.18,1.93-1.89,3.84-3.82,5.44-5.72.39-.46.76-1,1.06-1.35l.19-.27.29-.44.46-.76q1-1.68,1.92-3.39a42.6,42.6,0,0,0,2.93-6.86,18.82,18.82,0,0,0,1-6.5,8.63,8.63,0,0,0-1.9-5.06,13.6,13.6,0,0,0-4.95-3.62,33,33,0,0,0-6.8-2.17c-.6-.13-1.23-.25-1.82-.35l-1.43-.24-.35,0a28.37,28.37,0,0,0-3.43-.13c-2.47.05-5.05.28-7.62.55s-5.16.62-7.73,1c-10.31,1.51-20.46,3.49-30.4,5.4-29.62,5.83-59,12.84-88.58,18.82-2.06.4-4,.78-6.2,1.09l-.75.1-.86.07c-.55.06-1.09.07-1.64.09-1.08,0-2.14,0-3.18-.06-2.07-.12-4.07-.4-6-.7-3.88-.62-7.55-1.39-11.12-2s-7-1.21-10.35-1.56a54.72,54.72,0,0,0-18.58.88,34.28,34.28,0,0,0-7.74,2.84,26.49,26.49,0,0,0-13,15,37.2,37.2,0,0,0-2,9.38,46.77,46.77,0,0,0-.14,6Q295.18,112.55,295.25,113.58Z"/><path class="cls-1" d="M333.64,120.21a16.31,16.31,0,0,0,2.88.08,20.6,20.6,0,0,0,2.83-.32,27.29,27.29,0,0,0,5.4-1.58,28.89,28.89,0,0,0,4.92-2.6c.78-.5,1.53-1,2.26-1.6l1.12-.86c.35-.3.7-.57,1.05-.88.7-.6,1.36-1.22,2-1.86,1.38-1.42,2.51-3.08,4-4.4a12.1,12.1,0,0,1,3-1.93,35,35,0,0,1,6-2c1.94-.5,3.86-.9,5.79-1.29l.27,0q6.09-.72,12.16-1.68c16.32-2.54,32.45-6.21,48.76-8.77,2.08-.33,4.17-.64,6.33-.9,1.08-.13,2.17-.25,3.32-.33a28.09,28.09,0,0,1,3.8,0c.37,0,.77.08,1.24.17a8.13,8.13,0,0,1,1.75.53,5.89,5.89,0,0,1,1.34.79,5.59,5.59,0,0,1,1.56,1.91,5.33,5.33,0,0,1,.54,2.7,5.67,5.67,0,0,1-.4,1.82,8,8,0,0,1-.53,1.06l-.07.11-.16.24c-.05.08-.11.15-.17.23l-.27.36a3.46,3.46,0,0,1-.26.31c-.14.15-.29.33-.41.45a18.44,18.44,0,0,1-1.52,1.4,52.06,52.06,0,0,1-5.56,3.93c-3.67,2.28-7.35,4.32-11.05,6.31s-7.43,3.84-11.17,5.69-7.5,3.62-11.26,5.38q-11.3,5.27-22.77,10.12t-23.06,9.42c-7.75,3-15.52,5.92-23.39,8.59,28.77-16.3,58.62-30.66,87.33-47.07,3.55-2,7.08-4.06,10.39-6.22a48.43,48.43,0,0,0,4.55-3.27,7.13,7.13,0,0,0,.77-.71,1.1,1.1,0,0,0,.11-.12s0,0,0,0a.09.09,0,0,0,0,0l.16-.24-.12.18a2.51,2.51,0,0,0-.18.37,3.25,3.25,0,0,0-.23,1.07A3.92,3.92,0,0,0,448,98.12a2.71,2.71,0,0,0,.67.4c.27.12.3.1.26.1l-.29,0a18.57,18.57,0,0,0-2.41,0c-.91.06-1.88.14-2.85.25-2,.22-4,.51-6,.81-8.16,1.29-16.32,2.61-24.5,3.81-4.12.61-8.26,1.11-12.4,1.61s-8.32.87-12.5,1.16-8.37.49-12.58.53l.28,0c-1.89.22-3.77.48-5.61.76a31.15,31.15,0,0,0-5.17,1.2,7.82,7.82,0,0,0-2,1c-1.53,1.07-2.75,2.59-4.19,3.79a30.25,30.25,0,0,1-2.46,1.84c-.41.29-.86.57-1.28.85s-.78.49-1.27.76c-.88.51-1.78,1-2.7,1.4a31.34,31.34,0,0,1-5.71,2,24.77,24.77,0,0,1-5.92.71,18.54,18.54,0,0,1-5.81-.85C334.6,120.34,335.48,120.84,333.64,120.21Z"/><path class="cls-2" d="M296.85,436.13a17.16,17.16,0,1,1-16.57-17.72,17.32,17.32,0,0,1,16.57,17.72Zm-10.53-53.6a15.71,15.71,0,1,0,15.18,16.23A15.87,15.87,0,0,0,286.32,382.53Zm3.34-36.24a15,15,0,1,0,14.48,15.49,15.15,15.15,0,0,0-14.48-15.49Zm-4-7.87a14.27,14.27,0,1,0-13.78-14.75,14.41,14.41,0,0,0,13.78,14.75C293.57,338.68,277.81,338.15,285.69,338.42Zm7.81-50.18a13.54,13.54,0,1,0-14,13.08,13.66,13.66,0,0,0,14-13.08C293.76,280.76,293.25,295.72,293.5,288.24Zm-3.35-113.19c14.2.48,14.94-21.54.74-22s-14.94,21.54-.74,22Zm14.93-44c-12.71-1.14-14.47,18.58-1.75,19.71s14.46-18.58,1.75-19.71C299.64,130.59,310.53,131.56,305.08,131.08Zm-29.46,69.08c14.85.5,15.62-22.53.77-23s-15.62,22.53-.77,23Zm-7.7,28.94c15.51.52,16.32-23.52.81-24s-16.31,23.52-.81,24C274.56,229.33,261.28,228.88,267.92,229.1Zm3.81,34.84a13,13,0,1,0-12.6-13.48,13.17,13.17,0,0,0,12.6,13.48Z"/><path class="cls-1" d="M199.38,262.81l.4,1.76c.23,1.14.62,2.82,1,5,.84,4.28,1.91,10.4,3,17.77.53,3.69,1.05,7.68,1.55,11.92s1,8.7,1.39,13.32.84,9.52,1.12,14.28.57,9.82.8,14.77.34,9.91.39,14.79c.13,7.07.08,14.16-.23,21.22-.1,2.24-.17,4.43-.3,6.57s-.25,4.21-.42,6.22-.31,3.95-.51,5.81c-.38,3.73-.82,7.14-1.29,10.16-.26,1.5-.46,2.91-.72,4.21s-.52,2.49-.74,3.56c-.52,2.14-1,3.8-1.35,4.92l-.57,1.71s0-.63,0-1.8,0-2.87,0-5c-1-33.68-4.18-67.24-4.51-100.95-.16-9.26-.16-17.91,0-25.34s.34-13.64.56-18C199,267.38,199.19,265.09,199.38,262.81Z"/><path class="cls-2" d="M521.24,262C522,335.87,489.91,405.2,430.36,450c-63,47.39-148.69,58.9-222.07,30.33C134.69,451.69,81.9,387.25,65,310.63c-16.49-74.85,9.49-156.2,64-209.38,18-17.59,38.84-31.52,61.48-42.47-66,38.11-112.78,104.76-118.6,181.81-5.75,76,26.88,151,87.76,197.3a219,219,0,0,0,18.12,12.42C227,480.77,287.31,490.43,343.69,478a223.8,223.8,0,0,0,73.09-30.56c33.69-21.81,59.67-51.79,78.82-86.84C512.5,330.9,519.2,295.63,521.24,262Z"/></g></g></svg>