<?xml version="1.0" encoding="utf-8"?>
<!-- Generator: Adobe Illustrator 23.1.0, SVG Export Plug-In . SVG Version: 6.00 Build 0)  -->
<svg version="1.1" id="Layer_1" xmlns="http://www.w3.org/2000/svg" xmlns:xlink="http://www.w3.org/1999/xlink" x="0px" y="0px"
	 viewBox="0 0 1024 1024" style="enable-background:new 0 0 1024 1024;" xml:space="preserve">
<g>
	<path d="M719.52,279.23c30.54-10.52,46.77-43.8,36.26-74.34c-10.52-30.54-43.8-46.77-74.34-36.26s-72.01,43.51-58.73,82.08
		C636.74,291.48,688.98,289.75,719.52,279.23z"/>
	<path d="M482.39,494.73c-0.14-0.64-0.31-1.25-0.5-1.89c0.17,0.64,0.31,1.25,0.44,1.89C482.37,494.73,482.37,494.73,482.39,494.73z"
		/>
	<path d="M758.14,550.8c5.03,45.73,63.21,59.39,99.42,55.41c36.21-3.99,62.33-36.57,58.34-72.77
		c-3.99-36.21-36.57-62.33-72.77-58.34C806.92,479.08,752.82,502.47,758.14,550.8z"/>
	<path d="M943.79,618.22H80.21c-10.06,0-18.21,8.15-18.21,18.21v68.11c0,10.06,8.15,18.21,18.21,18.21h48.59v117.11h43.12V722.75
		h680.15v117.11h43.12V722.75h48.59c10.06,0,18.21-8.15,18.21-18.21v-68.11C962,626.37,953.85,618.22,943.79,618.22z"/>
	<path d="M208.86,791.57c-7.41,16.21-0.91,35.39,14.82,43.76l0,0c16.48,8.77,36.94,2.47,45.64-14.04L315.35,734h-80.18
		L208.86,791.57z"/>
	<path d="M405.13,496.05l-0.81,4.85c6.18-0.74,12.26-1.47,18.21-2.18c8.64-0.94,21.2-2.81,35.76-4.99l0.16-22.71
		c25.41-12.99,57.06-30.62,88.46-51.93c15.88-10.78,29.74-21.59,41.46-32.37l64.91,137.21c6.19,13.08,20.95,19.74,34.85,15.71h0
		c16.25-4.7,25.22-22.08,19.64-38.05c-18.49-52.91-57.4-163.5-77.63-215.71c-1.7-4.76-3.98-9.47-6.89-14.12
		c-24.66-39.35-45.26-58.58-128.69-14.77c-86.05,45.18-160.23,111.69-172.17,170.73c-4.41,21.81-10.36,53.76-16.11,85.39
		c33.09-4.26,66.55-8.41,97.47-12.14L405.13,496.05z"/>
	<path d="M387.05,826.03c1.02,18.26,16.13,32.55,34.42,32.55h0c18.95,0,34.34-15.29,34.48-34.24l0.64-90.34h-74.7L387.05,826.03z"/>
	<path d="M129.24,604.88h38.85c0,0,424.71,0,495.82,0c71.09,0,90.55-34.54,82.05-68c-3.56-14.02-12.46-24.24-25.72-31.45
		c1.25,8.36-0.14,16.86-4.12,24.57c-5.18,10.04-14.02,17.31-24.88,20.45c-3.69,1.07-7.5,1.61-11.32,1.61c0,0,0,0,0,0
		c-15.67,0-30.12-9.15-36.82-23.32l-4.4-9.29l-11.14,0.92L483.42,532.3c-12.36,1.03-21.63,11.8-20.77,24.19
		c0.81,11.66,10.33,20.83,22.02,21.16l216.06,6.11l-216.31,2.22c-16.05-0.47-28.99-12.88-30.07-28.91
		c-1.17-16.86,11.58-31.68,28.41-33.07l143.5-6.28l11.4-0.5L624,488.34c-74.09,0.15-165.66,17.78-200.14,21.55
		c-110.63,13.16-245.08,30.71-299.61,40.9c-12.91,2.42-22.27,13.69-22.27,26.82C101.98,592.66,114.19,604.88,129.24,604.88z"/>
</g>
</svg>
