<?xml version="1.0" encoding="utf-8"?>
<!-- Generator: Adobe Illustrator 23.1.0, SVG Export Plug-In . SVG Version: 6.00 Build 0)  -->
<svg version="1.1" id="Layer_1" xmlns="http://www.w3.org/2000/svg" xmlns:xlink="http://www.w3.org/1999/xlink" x="0px" y="0px"
	 viewBox="0 0 1024 1024" style="enable-background:new 0 0 1024 1024;" xml:space="preserve" fill="{{ include.fill_color }}">
<g>
	<polygon points="277.12,406.35 279.17,369.43 323.24,396.34 324.78,368.71 391.15,414.71 334.97,396.69 333.57,421.68 	"/>
	<polygon points="329.16,522.73 298.64,501.87 344.47,478.09 321.62,462.47 395.32,429.48 350.84,468.23 371.5,482.35 	"/>
	<polygon points="746.88,393.6 744.83,356.68 700.76,383.6 699.22,355.96 632.85,401.96 689.03,383.95 690.43,408.94 	"/>
	<polygon points="694.84,509.99 725.36,489.12 679.53,465.34 702.38,449.72 628.68,416.74 673.16,455.49 652.5,469.61 	"/>
	<path d="M610.53,192.52c0,0,104.56-32.34,104.37-3.58C714.74,213.94,650.3,183.8,610.53,192.52z"/>
	<path d="M594,154.86c0,0,25.88-106.34,50.47-91.43C665.85,76.4,606.92,116.25,594,154.86z"/>
	<g>
		<path d="M591.48,216.37c-0.15,9.63-1.36,20.45-3.81,31.39c-9.86,0.18-19.83,0.39-29.72,0.39H449.14c-0.72,0-1.44,0.03-2.16,0.08
			c-1.7,0.03-3.4,0.05-5.1,0.08c-2.76-12-3.97-23.93-3.81-34.41c0.7-42.37,35.59-76.15,77.96-75.46
			C558.38,139.11,592.17,174,591.48,216.37z"/>
		<path d="M602.3,314.62v-0.03c0,0-32.53,19.75-58.44,38.17c-25.91,18.41-21.58,48.39-5.67,62.71
			c15.84,14.27,43.65,11.85,76.34-19.44c6.31,45.95,12.46,98.69,16.15,150.58c7.8,109.97,3.43,301.35,1.13,380.05
			c-0.28,9.86-4.48,18.67-11.05,25.06c-6.57,6.36-15.5,10.28-25.37,10.28c-18.67,0-34.33-14.14-36.24-32.73L525.24,596.6h-21.81
			l-9.84,328.93c-0.59,20.32-17.23,36.47-37.55,36.47c-19.21,0-35.33-14.47-37.37-33.56c-6.34-59.16-18.08-188.52-16.77-322.75
			c0.72-73.66,4.22-144.3,8.14-202.45c41.62,37.09,59.98,17.69,69.97,5.43c9.99-12.28,12.72-34.56-5.69-50.22
			c-18.39-15.68-30.21-20.91-57.79-38.81l52.23,45.74c6.23,5.46,9.5,13.19,9.5,20.96c0,5.67-1.73,11.38-5.28,16.28
			c-8.47,11.74-24.52,15.04-36.91,7.57c-7.83-4.69-16.82-10.35-25.39-16.25c-5.67-3.89-11.15-7.91-16.02-11.87
			c-24.11-19.55-93.95-70.75-70.31-94.83c21.09-21.5,69.79-27.56,117.52-28.64c1.7-0.03,3.4-0.05,5.1-0.08
			c0.72-0.05,1.44-0.08,2.16-0.08h108.81c9.89,0,19.86-0.21,29.72-0.39c42.83-0.77,83.34-1,102.55,18.57
			c23.62,24.08-47.72,85.89-71.83,105.44c-1.67,1.37-3.43,2.73-5.23,4.09c-11.36,8.63-24.96,17.31-36.18,24.03
			c-12.39,7.47-28.43,4.17-36.91-7.57c-3.55-4.89-5.28-10.61-5.28-16.28c0-7.78,3.27-15.5,9.5-20.96L602.3,314.62z"/>
	</g>
</g>
</svg>
