<?xml version="1.0" encoding="utf-8"?>
<!-- Generator: Adobe Illustrator 23.1.0, SVG Export Plug-In . SVG Version: 6.00 Build 0)  -->
<svg version="1.1" id="Layer_1" xmlns="http://www.w3.org/2000/svg" xmlns:xlink="http://www.w3.org/1999/xlink" x="0px" y="0px"
	 viewBox="0 0 1024 1024" style="enable-background:new 0 0 1024 1024;" xml:space="preserve" fill="{{ include.fill_color }}">
<g>
	<path d="M719.81,533.52c-8.75-39.99-33.77-135.56-53.81-184.86c-27.23-66.95-53.59-66.8-83.51-68.49c-0.92-0.1-1.85-0.16-2.8-0.16
		l-59.81-0.07c9.17,7.17,15.09,18.33,15.09,30.85c0,21.59-17.56,39.15-39.15,39.15c-21.59,0-39.15-17.56-39.15-39.15
		c0-12.46,5.86-23.58,14.97-30.75c-7.87,0.57-13.53,1.41-15.48,0.64c-0.94-0.37-1.8-0.65-2.6-0.87l-57.68-25.48l75.61,17.46
		c12.3,2.17,24.57-3.94,30.25-15.06v0c8.04-15.75-0.09-34.93-17-40.1c-20.06-6.13-46.96-14.06-73.33-20.92
		c-51.77-13.46-124.9-9.32-104.19,40.38c20.71,49.7,120.65,141.98,127.77,188.57c-0.12,2.02-0.24,3.94-0.37,5.71
		c-3.7,53-6.12,147.19-6.8,215.96c-1.16,118.92,9.24,233.54,14.85,285.95c1.8,16.91,16.09,29.73,33.11,29.73
		c18,0,32.74-14.31,33.27-32.31l8.72-291.42h19.33L567.11,933c1.69,16.47,15.56,29,32.1,29c8.74,0,16.66-3.47,22.48-9.1
		c5.82-5.66,9.54-13.46,9.79-22.2c2.03-69.73,5.91-267.65-1-365.08c-3.49-49.31-4.63-99.48-10.63-142.15
		c-1.01-7.21-2.03-16.94-3.02-27.5c12.47,26.11,41.71,114.76,52.91,150.79c3.91,12.57,16.62,20.2,29.55,17.76h0
		C713.64,561.8,722.93,547.78,719.81,533.52z"/>
	<path d="M488.43,204.45c11.66,3.57,21.08,12.05,25.84,23.28c4.76,11.23,4.31,23.9-1.24,34.76c-1.28,2.5-2.79,4.83-4.49,6.97
		c2.04,1.05,4.19,2.01,6.44,2.85c50.8,19.07,91-33,105.28-71.05c14.28-38.06-4.99-80.48-43.05-94.77
		c-38.06-14.28-80.48,4.99-94.77,43.05c-5.32,14.19-8.83,32.35-8.66,50.49C479.1,201.61,484.03,203.11,488.43,204.45z"/>
	<polygon points="458.29,122.56 456.49,180.96 482.15,105.22 455.42,111.3 469.01,62 433.3,70.13 434.13,128.06 	"/>
	<polygon points="394.53,157.21 443.57,188.97 392.03,127.82 383.4,153.84 348.25,116.71 336.72,151.47 386.73,180.74 	"/>
	<path d="M491.11,279.89c-2.39-0.18-4.71-0.27-6.95-0.29c-12.63,4.73-21.64,16.92-21.64,31.18c0,18.35,14.93,33.29,33.29,33.29
		s33.29-14.93,33.29-33.29c0-13.96-8.64-25.93-20.84-30.87L491.11,279.89z M495.81,326.65c-8.77,0-15.88-7.11-15.88-15.88
		s7.11-15.88,15.88-15.88c8.77,0,15.88,7.11,15.88,15.88S504.58,326.65,495.81,326.65z"/>
</g>
</svg>
