<?xml version="1.0" encoding="utf-8"?>
<!-- Generator: Adobe Illustrator 23.1.0, SVG Export Plug-In . SVG Version: 6.00 Build 0)  -->
<svg version="1.1" id="Layer_1" xmlns="http://www.w3.org/2000/svg" xmlns:xlink="http://www.w3.org/1999/xlink" x="0px" y="0px"
	 viewBox="0 0 1024 1024" style="enable-background:new 0 0 1024 1024;" xml:space="preserve" fill="{{ include.fill_color }}">
<g>
	<path d="M865.54,801.42l-162.35-8.47l2.48,3.97c10.54,16.89,13.65,37.61,8.54,56.85c-5.11,19.24-18.1,35.68-35.63,45.11
		c-3.09,1.66-6.3,3.06-9.59,4.26c78.18-1.49,150-2.89,194.97-3.77c26.69-0.52,48.05-22.31,48.05-49.01v0
		C912,824.29,891.58,802.78,865.54,801.42z"/>
	<path d="M498.69,730.84l103.03,136.52c10.38,13.78,26.33,21.24,42.63,21.24c8.58,0,17.25-2.07,25.26-6.38
		c27.15-14.61,36.31-49.11,19.98-75.26l-116.19-186.2c-7.57-12.13-18.61-20.99-31.14-25.94c5.3,10.91,6.83,23.61,3.63,36.03
		c-5.99,23.26-26.92,39.5-50.9,39.5c-4.41,0-8.86-0.57-13.17-1.69l-99.35-25.63l-28.29,12.18c0.99-5.86,2.14-12.07,3.39-18.6
		l-15.6-4.02c-22.39-5.77-39.69-24.16-44.07-46.87l-22.3-176.6l33.74,174.39c3.56,18.41,17.4,33.12,35.55,37.8l139.84,36.08
		c21.9,5.65,44.23-7.53,49.87-29.43l0,0c4.9-19.04-4.42-38.88-22.21-47.25l-111.8-44.18c0,0,5.29-79.46-8.38-133.91
		c-0.14-0.96-0.28-1.91-0.45-2.83c-11.3-62.72-98.69-78.14-161.41-43.19c-62.72,34.96-121.33,179.92-118.24,310.5
		c3.09,130.58,83.28,243.66,181.98,242.64c47.31-0.5,191.21-3.12,328.25-5.71c-14.08-4.52-26.7-13.27-35.74-25.27l-72.18-95.65
		l-47.57-2.48l-88.18,38.31l54.58-40.07L498.69,730.84z M275.61,409.04l-0.01,0l0,0L275.61,409.04z"/>
	<polygon points="648.61,593.84 571.95,595.13 672.84,624.02 663.19,589.37 728.66,604.09 715.77,557.79 639.89,562.5 	"/>
	<polygon points="637.57,507.31 602.93,497.63 649.4,449.23 603.11,436.3 567.88,503.68 599.2,512.43 560.64,578.69 	"/>
	<path d="M371.74,345.05c67.58,32.75,129.61-33.87,154.14-84.49c24.53-50.62,3.39-111.55-47.24-136.09
		c-50.62-24.53-111.55-3.39-136.09,47.24C318.02,222.33,307.8,314.06,371.74,345.05z"/>
</g>
</svg>
