<?xml version="1.0" encoding="utf-8"?>
<!-- Generator: Adobe Illustrator 23.1.0, SVG Export Plug-In . SVG Version: 6.00 Build 0)  -->
<svg version="1.1" id="Layer_1" xmlns="http://www.w3.org/2000/svg" xmlns:xlink="http://www.w3.org/1999/xlink" x="0px" y="0px"
	 viewBox="0 0 1024 1024" style="enable-background:new 0 0 1024 1024;" xml:space="preserve" fill="{{ include.fill_color }}">
<g>
	<path d="M539.76,460.23c-7.33,11.7-4.96,27.01,5.58,35.93l0.02,0.01c11.48,9.71,28.58,8.52,38.61-2.69
		c25.18-28.14,67.73-81.34,73.53-125.29c8.32-62.97-18.25-108.74-89.9-116.73l0,0.1c-0.72-0.05-1.44-0.1-2.17-0.1H445.55
		c-0.71,0-1.42,0.03-2.12,0.08l0-0.08c-71.65,0.62-94.08,53.5-85.76,116.47c5.8,43.95,48.35,97.15,73.53,125.29
		c10.02,11.2,27.13,12.4,38.61,2.69l0.02-0.02c10.54-8.92,12.91-24.23,5.58-35.93c-17.48-27.92-47.02-77.36-51.89-100.14
		c-7.81-36.56,21.21-36.93,21.21-36.93c-13.03,6.74-23.98,23.23-5.32,58.11c18.65,34.88,34.32,59.92,43.8,74.7
		c13,20.26,6.96,41.99-7.54,52.24c-17.6,12.44-41.99,8.4-70.41-30.36c-1.21-1.66-2.38-3.26-3.52-4.83
		c-1.96,40.62-3.43,84.45-3.88,129.4c-1.33,135.56,10.53,266.21,16.93,325.95c2.05,19.27,18.34,33.89,37.74,33.89
		c20.52,0,37.32-16.31,37.92-36.83l9.94-332.2h22.03l34.25,335.97c1.92,18.78,17.74,33.06,36.6,33.06c9.96,0,18.99-3.95,25.62-10.38
		c6.63-6.45,10.87-15.35,11.16-25.31c2.31-79.49,6.74-272.76-1.14-383.82c-1.91-27.03-4.5-54.28-7.42-80.71
		c-3.33,4.75-7.11,10.02-11.35,15.81c-28.42,38.76-52.81,42.8-70.41,30.36c-14.51-10.25-20.54-31.98-7.54-52.24
		c9.48-14.78,25.15-39.81,43.8-74.7c18.65-34.88,7.51-51.11-5.52-57.85c0,0,29.02,0.37,21.21,36.93
		C586.78,382.87,557.25,432.31,539.76,460.23z"/>
	<g>
		<polygon points="780.13,498.5 777.76,455.92 726.94,486.96 725.16,455.09 648.61,508.14 713.41,487.36 715.01,516.18 		"/>
		<polygon points="720.1,632.73 755.31,608.67 702.45,581.24 728.8,563.23 643.8,525.18 695.1,569.87 671.27,586.16 		"/>
		<polygon points="243.87,498.5 246.24,455.92 297.06,486.96 298.84,455.09 375.39,508.14 310.59,487.36 308.99,516.18 		"/>
		<polygon points="303.9,632.73 268.69,608.67 321.55,581.24 295.2,563.23 380.2,525.18 328.9,569.87 352.73,586.16 		"/>
	</g>
	<path d="M601.92,170.16c0,0,86.64-26.8,86.49-2.97C688.28,187.91,634.88,162.93,601.92,170.16z"/>
	<path d="M588.23,138.95c0,0,21.45-88.12,41.82-75.76C647.77,73.93,598.93,106.95,588.23,138.95z"/>
	<path d="M577.16,212.88c-0.14,8.75-1.24,18.57-3.46,28.51c-8.96,0.16-18.01,0.35-26.99,0.35h-98.81c-0.65,0-1.31,0.02-1.96,0.07
		c-1.54,0.02-3.09,0.05-4.63,0.07c-2.5-10.9-3.6-21.73-3.46-31.25c0.63-38.47,32.32-69.16,70.8-68.53
		C547.1,142.72,577.79,174.41,577.16,212.88z"/>
</g>
</svg>
