<?xml version="1.0" encoding="utf-8"?>
<!-- Generator: Adobe Illustrator 23.1.0, SVG Export Plug-In . SVG Version: 6.00 Build 0)  -->
<svg version="1.1" id="Layer_1" xmlns="http://www.w3.org/2000/svg" xmlns:xlink="http://www.w3.org/1999/xlink" x="0px" y="0px"
	 viewBox="0 0 1024 1024" style="enable-background:new 0 0 1024 1024;" xml:space="preserve" fill="{{ include.fill_color }}">
<g>
	<path d="M512.06,62c38.85,0.03,70.31,31.55,70.28,70.4c-0.03,38.85-18.57,98.91-70.43,98.87c-49.07-0.04-70.29-60.14-70.26-98.99
		C441.69,93.43,473.21,61.97,512.06,62z"/>
	<path d="M570.81,243.58h-54.6h-8.42h-37.36h-17.24c-62.99,0-113.25,52.55-110.45,115.47l7.35,176.34
		c0.58,12.94,11.23,23.13,24.19,23.13c13.21,0,23.99-10.59,24.21-23.81l2.85-181.55c0.14-8.39,5.75-15.41,13.4-17.7
		c-0.98,18.4-0.08,37.77,0.08,53.76c0.62,63.1-0.33,164.64-1.06,237.65c-1.24,126.25-3.29,247.92,2.66,303.56
		c1.91,17.95,17.08,31.56,35.15,31.56c19.11,0,34.76-15.19,35.32-34.3l13.81-298.93c0.27-5.85,5.09-10.45,10.94-10.45
		c5.69,0,10.43,4.35,10.92,10.02l26,302.87c1.79,17.49,16.52,30.79,34.08,30.79c9.28,0,17.68-3.68,23.86-9.67
		c6.18-6.01,10.13-14.29,10.39-23.57c2.16-74.03,5.27-266.12-2.07-369.56c-3.71-52.35-4.28-143.38-5.06-193.75
		c-0.19-12.29-0.35-21.63-0.81-30.08c7.81,2.19,13.59,9.28,13.73,17.79l2.85,181.55c0.22,13.21,10.99,23.81,24.21,23.81h0
		c12.95,0,23.61-10.19,24.19-23.13l7.35-176.34C684.06,296.13,633.8,243.58,570.81,243.58z M466.1,535.72v-13.28h-34.17v-18.89
		h34.17v-13.28l27.51,22.73L466.1,535.72z M550.33,531.6c-3.79,0.12-5.67,0.88-7.68,4.98c-1.55,3.16-3.42,5.76-7.57,6.89
		c2.97,1.95,3.49,4.93,8.97,5.6c7.53,0.92,8.49,6.78,4.72,6.31s-5.74,0.01-8.35,3.76c-2.09,3-4.42,5.35-9.01,5.71
		c2.85,1.61,3.89,4.24,9.16,4.24c7.59,0,9.25,5.69,5.46,5.69c-3.8,0-5.69,0.71-7.83,4.74c-2.13,4.03-4.74,7.12-12.1,7.12
		c-7.35,0-9.96-3.08-12.1-7.12c-2.13-4.03-4.03-4.74-7.83-4.74c-3.8,0-2.13-5.69,5.46-5.69c6.69,0,6.57-4.23,11.96-5.24
		c-4.24-1.48-5.9-4.28-7.19-7.65c-1.63-4.26-3.43-5.2-7.19-5.66c-3.77-0.46-1.43-5.91,6.11-4.99c4.63,0.57,6.22-1.31,8.62-2.62
		c-2.6-1.2-4.13-3.23-5.48-5.61c-2.26-3.97-4.18-4.62-7.97-4.5c-3.79,0.12-2.31-5.63,5.28-5.86c5.4-0.16,6.28-2.95,9.25-4.64
		c-2.11-0.85-3.66-2.35-5.15-4.12c-2.94-3.49-4.94-3.79-8.65-2.98c-3.71,0.8-3.29-5.11,4.13-6.72c4.87-1.05,5.55-3.61,7.67-5.72
		c-2.53-0.68-4.34-2.25-6.08-4.16c-3.07-3.37-5.09-3.59-8.76-2.64c-3.68,0.95-3.49-4.98,3.86-6.87c4.33-1.12,5.24-3.31,6.85-5.33
		c-1.77-0.78-3.2-2.04-4.59-3.5c-3.14-3.31-5.16-3.48-8.82-2.46c-3.66,1.02-3.59-4.91,3.72-6.95c3.53-0.99,4.75-2.65,5.94-4.35
		c-1.88-0.63-3.45-1.78-4.98-3.16c-3.4-3.05-5.42-3.06-8.98-1.75c-3.56,1.31-3.97-4.61,3.15-7.23c3.69-1.36,4.66-3.27,5.79-5.19
		c-2.04-0.69-3.66-2-5.23-3.56c-3.24-3.22-5.26-3.33-8.88-2.21c-3.62,1.13-3.73-4.8,3.52-7.06c4.2-1.31,5.04-3.49,6.51-5.56
		c-2.17-0.66-3.85-2.02-5.48-3.65c-3.24-3.22-5.26-3.33-8.88-2.21c-3.62,1.13-3.73-4.8,3.52-7.06c3.8-1.18,4.85-3.08,6.1-4.96
		c-2.78-0.47-4.78-2.01-6.71-3.93c-3.24-3.22-5.26-3.33-8.88-2.21c-3.62,1.13-3.73-4.8,3.52-7.06c3.39-1.05,4.59-2.68,5.7-4.35
		c-1.52-0.9-2.75-2.16-3.93-3.6c-2.89-3.53-4.89-3.85-8.61-3.1c-3.72,0.75-3.22-5.16,4.22-6.66c3.17-0.64,4.58-1.93,5.76-3.33
		c-1.71-1.14-2.93-2.72-4.05-4.53c-2.41-3.88-4.35-4.46-8.14-4.19c-3.79,0.26-2.52-5.53,5.05-6.05c3.11-0.21,4.67-1.24,6-2.42
		c-2.01-1.53-3.1-3.59-4.01-5.92c-1.66-4.25-3.47-5.17-7.24-5.6c-3.77-0.43-1.47-5.9,6.07-5.04c2.43,0.28,4.01-0.11,5.32-0.73
		c-1.1-1.29-1.84-2.82-2.5-4.48c-1.66-4.25-3.47-5.17-7.24-5.6c-3.77-0.43-1.47-5.9,6.07-5.04c3.04,0.35,4.75-0.35,6.25-1.24
		c-2.23-1.84-3.18-4.22-3.87-6.9c-1.14-4.42-2.82-5.55-6.51-6.43c-3.69-0.88-0.75-6.03,6.63-4.27c4.56,1.09,6.35-0.62,8.9-1.65
		c-1.3-1.79-1.84-3.84-2.19-6.08c-0.71-4.51-2.27-5.8-5.86-7.03c-3.59-1.23-0.17-6.08,7.01-3.61c7.18,2.47,7.83-3.08,15.46-0.45
		s4.73,7.4,11.91,9.86c7.18,2.47,6.9,8.39,3.31,7.16c-3.59-1.23-5.61-1.18-8.94,1.94c-1.92,1.8-3.9,3.25-6.56,3.69
		c1.06,1.19,2.44,2.26,5.12,2.9c7.38,1.76,7.67,7.69,3.98,6.8c-3.69-0.88-5.7-0.63-8.72,2.79c-1,1.14-2.03,2.15-3.22,2.95
		c1.31,1.3,2.82,2.48,6.05,2.85c7.54,0.86,8.54,6.71,4.77,6.28c-3.77-0.43-5.74,0.06-8.32,3.82c-0.97,1.42-2,2.7-3.3,3.7
		c1.16,0.97,2.64,1.77,5.19,2.06c7.54,0.86,8.54,6.71,4.77,6.28c-3.77-0.43-5.74,0.06-8.32,3.82c-0.69,1-1.4,1.93-2.21,2.74
		c1.24,0.62,2.76,1.02,5.06,0.86c7.57-0.52,9.62,5.04,5.83,5.3s-5.63,1.1-7.48,5.27c-0.61,1.37-1.28,2.63-2.15,3.73
		c1.21,0.34,2.66,0.46,4.66,0.05c7.44-1.5,10.2,3.75,6.47,4.5c-3.72,0.75-5.44,1.82-6.73,6.2c-0.5,1.7-1.11,3.27-2.07,4.64
		c1.15,0.14,2.49,0.05,4.22-0.48c7.25-2.25,10.52,2.69,6.9,3.82c-3.62,1.13-5.23,2.37-6.07,6.85c-0.48,2.54-1.19,4.83-2.99,6.74
		c2.21,0.86,4.16,1.98,8.13,0.74c7.25-2.25,10.52,2.69,6.9,3.82c-3.62,1.13-5.23,2.37-6.07,6.85c-0.53,2.85-1.37,5.39-3.71,7.42
		c1.88,0.76,3.79,1.44,7.21,0.37c7.25-2.25,10.52,2.69,6.9,3.82c-3.62,1.13-5.23,2.37-6.07,6.85c-0.44,2.35-1.09,4.48-2.61,6.3
		c1.59,0.45,3.38,0.64,6.09-0.36c7.12-2.62,10.65,2.15,7.09,3.46c-3.56,1.31-5.1,2.63-5.71,7.16c-0.38,2.79-1.05,5.31-3.14,7.42
		c1.9,0.84,3.81,1.64,7.35,0.65c7.31-2.04,10.44,2.99,6.79,4.02c-3.66,1.02-5.29,2.22-6.26,6.67c-0.65,2.97-1.62,5.59-4.28,7.59
		c1.71,0.76,3.55,1.35,6.74,0.53c7.35-1.89,10.38,3.2,6.7,4.15c-3.68,0.95-5.34,2.11-6.4,6.55c-0.78,3.26-1.94,6.09-5.33,8.08
		c2.38,1.09,4.17,2.67,8.59,1.72c7.42-1.6,10.24,3.61,6.53,4.41s-5.41,1.9-6.65,6.29c-1.11,3.94-2.76,7.2-8.26,8.96
		c3,1.51,4.08,4.19,9.44,4.03C552.29,525.85,554.13,531.49,550.33,531.6z M597.21,389.96h-34.17v13.28l-27.51-22.73l27.51-22.73
		v13.28h34.17V389.96z"/>
</g>
</svg>
