<?xml version="1.0" encoding="utf-8"?>
<!-- Generator: Adobe Illustrator 23.1.0, SVG Export Plug-In . SVG Version: 6.00 Build 0)  -->
<svg version="1.1" id="Layer_1" xmlns="http://www.w3.org/2000/svg" xmlns:xlink="http://www.w3.org/1999/xlink" x="0px" y="0px"
	 viewBox="0 0 1024 1024" style="enable-background:new 0 0 1024 1024;" xml:space="preserve" fill="{{ include.fill_color }}">
<g>
	<path d="M676.04,258.44L676.04,258.44c-39.14-43.61-92.49-95.42-129.32-130.26c-23.45-22.18-60.34-21.47-82.91,1.6L358.59,237.35
		c-11.24,11.49-10.61,30.03,1.38,40.74l0,0c10.04,8.96,25.01,9.58,35.75,1.47l101.95-76.98l26.2,30.17l0,0
		c-111.05,23.47-221.1,96.6-234.98,165.23c-14.25,70.44-41.94,229.51-41.94,229.51l-93.48,204.58
		c-8.84,19.34-1.09,42.22,17.69,52.21h0c19.66,10.46,44.07,2.95,54.45-16.75L337.96,654.4l49.66-174.9l-32.67,195.84l0,0
		l11.1,197.84c1.22,21.79,19.25,38.83,41.07,38.83h0c22.6,0,40.97-18.24,41.13-40.84l2.92-414.32c25.73-9.1,58.26-20.53,95.72-33.53
		c3.21-1.11,6.37-2.21,9.49-3.3c0,0,0,0,0,0c-20.59,36.28-91.79,93.52-91.79,93.52v60.94c125.04-73.6,209.72-166.99,230.47-236.06
		l0,0c2.62-7.1,3.91-14.88,3.78-23.53C698.55,294.14,691.15,274.18,676.04,258.44z"/>
	<path d="M870.36,241.37c-12.55-36.44-52.26-55.8-88.69-43.25c-36.44,12.55-85.92,51.91-70.07,97.93
		c16.75,48.64,79.07,46.57,115.51,34.02C863.54,317.51,882.91,277.8,870.36,241.37z"/>
	<polygon points="276.63,262.48 314.08,315.66 286.26,231.08 266.54,254.37 245.66,201.41 219.31,232.53 258.79,283.54 	"/>
	<polygon points="225.51,326.14 288.33,343 212.81,295.86 212.57,326.37 162.62,299.06 162.31,339.83 225.3,353.73 	"/>
</g>
</svg>
