<?xml version="1.0" encoding="utf-8"?>
<!-- Generator: Adobe Illustrator 23.1.0, SVG Export Plug-In . SVG Version: 6.00 Build 0)  -->
<svg version="1.1" id="Layer_1" xmlns="http://www.w3.org/2000/svg" xmlns:xlink="http://www.w3.org/1999/xlink" x="0px" y="0px"
	 viewBox="0 0 1024 1024" style="enable-background:new 0 0 1024 1024;" xml:space="preserve" fill="{{ include.fill_color }}">
<g>
	<path d="M776.05,643.36h-97.39c8.81,14.41,14.74,30.8,17.78,49.13h79.6v228.75h50.66V692.49v-49.13H776.05z"/>
	<path d="M247.95,643.36h-50.66v49.13v228.75h50.66V692.49h85.41c0.66-2.38,1.35-4.76,2.09-7.13c4.76-15.26,10.91-29.4,18.16-42
		H247.95z"/>
	<polygon points="409.76,121.33 407.99,178.55 433.14,104.34 406.95,110.3 420.26,62 385.27,69.96 386.08,126.72 	"/>
	<polygon points="347.29,155.28 395.34,186.4 344.84,126.48 336.39,151.98 301.95,115.6 290.66,149.65 339.65,178.33 	"/>
	<path d="M622.06,609.17c-2.14-48.63-2.85-101.58-3.46-147.36l-0.54-46.21c9.78,14.04,27.59,42.89,36.6,77.82
		c8.6,33.35,18.69,81.72,24.39,109.87c2.58,12.73,14.62,21.25,27.48,19.44h0c13.49-1.9,22.86-14.4,20.87-27.88
		c-5.5-37.31-16.61-108.88-27.19-154.15c-14.84-63.46-39.64-118.85-82.79-136.19c-12.91-4.74-26.87-7.34-41.46-7.34h-59.38h-9.16
		H466.8h-18.75c-14.73,0-28.81,2.65-41.82,7.47v92.44l-0.14,3.89l0.14-96.33l33.33-41c-12.98-27.3-13.67-62.67-8.04-91.3
		c-2.19,1.3-4.27,2.88-6.18,4.74c-47.54,46.36-145.18,149.17-133.75,195.47c9.02,36.52,74.26,32.46,114.5,28.42l-0.23,6.36
		c-0.38,16.8,0.31,33.77,0.46,48.22c0.4,40.69,0.2,96.07-0.2,150.96c-48.63,29.29-84.64,123.64-57.51,205.59
		c14.74,44.52,45.62,100.15,65.25,133.36c9.51,16.08,30.3,21.33,46.32,11.73h0c13.83-8.29,19.84-25.21,14.36-40.37
		c-10.82-29.96-28.11-80.51-37.72-122.69c-14.7-64.53,6.94-111.9,69.02-111.08s87.81,17.15,94.34,75.15
		c4.74,42.04,9.04,118.24,11.06,167.16c0.7,17.07,14.74,30.53,31.82,30.53h0c17.1,0,31.15-13.5,31.82-30.59
		c2.07-52.51,6.42-140.38,9.43-189.16C687.96,676.95,667.39,634.43,622.06,609.17z"/>
	<path d="M488.21,287.98c53.82,16.85,92.52-39.5,105.14-79.82c12.62-40.32-9.83-83.23-50.15-95.85
		c-40.32-12.62-83.23,9.83-95.85,50.15C434.73,202.78,437.29,272.04,488.21,287.98z"/>
</g>
</svg>
