<?xml version="1.0" encoding="utf-8"?>
<!-- Generator: Adobe Illustrator 23.1.0, SVG Export Plug-In . SVG Version: 6.00 Build 0)  -->
<svg version="1.1" id="Layer_1" xmlns="http://www.w3.org/2000/svg" xmlns:xlink="http://www.w3.org/1999/xlink" x="0px" y="0px"
	 viewBox="0 0 1024 1024" style="enable-background:new 0 0 1024 1024;" xml:space="preserve" fill="{{ include.fill_color }}">
<g>
	<path d="M512.06,62c38,0.03,68.79,30.87,68.75,68.87s-18.16,96.76-68.89,96.72c-48-0.04-68.76-58.83-68.73-96.84
		C443.22,92.75,474.05,61.97,512.06,62z"/>
	<path d="M569.54,259.2h-6.32v3.21l-2.07,2.46c-1.37,1.62-14.35,15.85-49.15,15.85c-34.8,0-47.78-14.23-49.15-15.85l-2.07-2.46
		v-3.21h-6.32c-61.62,0-110.79,51.4-108.05,112.96l7.19,172.5c0.56,12.66,10.99,22.63,23.66,22.63c12.93,0,23.46-10.36,23.68-23.29
		l2.79-177.61c0.14-8.2,5.63-15.07,13.11-17.32c-0.95,18-0.08,36.95,0.07,52.59c0.61,61.73-0.33,161.06-1.04,232.48
		c-1.21,123.51-3.22,242.53,2.61,296.96c1.87,17.56,16.71,30.88,34.38,30.88c18.7,0,34-14.86,34.55-33.55l13.51-292.43
		c0.26-5.72,4.98-10.22,10.71-10.22c5.56,0,10.2,4.26,10.68,9.8l25.44,296.29c1.75,17.11,16.16,30.12,33.34,30.12
		c9.08,0,17.3-3.6,23.34-9.45c6.04-5.88,9.91-13.98,10.17-23.06c2.11-72.42,5.15-260.34-2.03-361.52
		c-3.63-51.21-4.19-140.26-4.95-189.53c-0.19-12.02-0.35-21.16-0.79-29.43c7.64,2.14,13.29,9.08,13.43,17.4l2.79,177.61
		c0.22,12.92,10.75,23.29,23.68,23.29h0c12.67,0,23.1-9.97,23.66-22.63l7.19-172.5C680.32,310.61,631.15,259.2,569.54,259.2z"/>
	<path d="M554.41,259.2c0,0-10.7,12.72-42.41,12.72s-42.41-12.72-42.41-12.72v-35.93c0,0,9.09,12.9,41.95,12.72
		c30.79-0.17,42.87-12.72,42.87-12.72V259.2z"/>
</g>
</svg>
