<?xml version="1.0" encoding="utf-8"?>
<!-- Generator: Adobe Illustrator 16.0.4, SVG Export Plug-In . SVG Version: 6.00 Build 0)  -->
<!DOCTYPE svg PUBLIC "-//W3C//DTD SVG 1.1//EN" "http://www.w3.org/Graphics/SVG/1.1/DTD/svg11.dtd">
<svg version="1.1" id="Layer_1" xmlns="http://www.w3.org/2000/svg" xmlns:xlink="http://www.w3.org/1999/xlink" x="0px" y="0px"
	 width="1920px" height="1080px" viewBox="0 0 1920 1080" enable-background="new 0 0 1920 1080" xml:space="preserve" fill="{{ include.fill_color }}">
<g>
	<path d="M1034.187,139.641c-0.021,25.429-7.562,59.474-26.356,81.644h-94.447c-18.953-22.191-27.591-56.31-27.569-81.77
		c0.031-40.975,33.275-74.166,74.25-74.124C1001.038,65.422,1034.219,98.666,1034.187,139.641z"/>
	<path d="M856.261,673.112h91.347l-14.102,305.321c-0.59,20.155-17.096,36.176-37.251,36.176c-19.059,0-35.058-14.365-37.072-33.297
		C853.086,924.392,854.942,801.942,856.261,673.112z"/>
	<path d="M1072.071,673.112c2.71,108.938,0.316,245.562-1.456,306.439c-0.284,9.787-4.439,18.521-10.958,24.858
		c-6.518,6.308-15.377,10.199-25.165,10.199c-18.52,0-34.056-14.027-35.943-32.474l-26.525-309.023H1072.071z"/>
	<path d="M1054.12,261.362H865.88c-50.552,14.438-86.854,62.089-84.396,117.323l7.752,185.983
		c0.602,13.647,11.845,24.396,25.513,24.396c13.933,0,25.292-11.17,25.523-25.102l3.006-191.489
		c0.148-8.839,6.075-16.253,14.133-18.668c-1.022,19.406-0.084,39.835,0.085,56.7c0.58,58.777-0.147,149.164-0.844,222.528h214.133
		c-0.644-15.525-1.413-30.069-2.352-43.253c-3.913-55.202-4.524-151.221-5.337-204.335c-0.2-12.962-0.38-22.813-0.854-31.726
		c8.237,2.311,14.323,9.788,14.481,18.753l3.006,191.489c0.231,13.932,11.591,25.102,25.523,25.102
		c6.834,0,13.057-2.689,17.655-7.077c4.588-4.398,7.552-10.494,7.857-17.318l7.752-185.983
		C1140.974,323.451,1104.672,275.801,1054.12,261.362z M971.232,317.439c5.959,0.158,9.672,3.671,6.328,4.842
		c-3.66,1.275-6.95-0.105-7.51,2.826c-0.411,2.162-0.221,6.022-4.145,7.889c1.287,1.129,2.816,2.12,5.326,2.184
		c5.959,0.158,9.672,3.67,6.328,4.841c-3.66,1.276-6.95-0.105-7.51,2.827c-0.411,2.162-0.221,6.021-4.145,7.889
		c1.287,1.129,2.816,2.12,5.326,2.184c5.959,0.158,9.672,3.67,6.328,4.841c-3.66,1.276-6.95-0.105-7.51,2.826
		c-0.411,2.162-0.221,6.022-4.145,7.89c1.287,1.128,2.816,2.119,5.326,2.183c5.959,0.158,9.672,3.671,6.328,4.841
		c-3.66,1.276-6.95-0.105-7.51,2.827c-0.411,2.162-0.221,6.022-4.145,7.889c1.287,1.129,2.816,2.12,5.326,2.184
		c5.959,0.158,9.672,3.67,6.328,4.841c-3.66,1.276-6.95-0.105-7.51,2.826c-0.411,2.162-0.221,6.022-4.145,7.89
		c1.287,1.128,2.816,2.12,5.326,2.183c5.959,0.158,9.672,3.671,6.328,4.842c-3.66,1.275-6.95-0.105-7.51,2.826
		c-0.411,2.162-0.221,6.022-4.145,7.889c1.287,1.129,2.816,2.12,5.326,2.184c5.959,0.158,9.672,3.67,6.328,4.841
		c-3.66,1.276-6.95-0.105-7.51,2.827c-0.411,2.162-0.221,6.021-4.145,7.889c1.287,1.129,2.816,2.12,5.326,2.184
		c5.959,0.158,9.672,3.67,6.328,4.841c-3.66,1.276-6.95-0.105-7.51,2.826c-0.411,2.162-0.221,6.022-4.145,7.89
		c1.287,1.128,2.816,2.119,5.326,2.183c5.959,0.158,9.672,3.671,6.328,4.841c-3.66,1.276-6.95-0.105-7.51,2.827
		c-0.411,2.162-0.221,6.022-4.145,7.889c1.287,1.129,2.816,2.12,5.326,2.184c5.959,0.158,9.672,3.67,6.328,4.841
		c-3.66,1.276-6.95-0.105-7.51,2.826c-0.411,2.162-0.221,6.022-4.145,7.89c1.287,1.128,2.816,2.12,5.326,2.183
		c5.959,0.158,9.672,3.671,6.328,4.842c-3.66,1.275-6.95-0.105-7.51,2.826c-0.411,2.162-0.221,6.022-4.145,7.889
		c1.287,1.129,2.816,2.12,5.326,2.184c5.959,0.158,9.672,3.67,6.328,4.841c-3.66,1.276-6.95-0.105-7.51,2.827
		c-0.411,2.162-0.221,6.021-4.145,7.889c1.287,1.129,2.816,2.12,5.326,2.184c5.959,0.158,9.672,3.67,6.328,4.841
		c-3.66,1.276-6.95-0.105-7.51,2.826c-0.411,2.162-0.221,6.022-4.145,7.89c1.287,1.128,2.816,2.119,5.326,2.183
		c5.959,0.158,9.672,3.671,6.328,4.841c-3.66,1.276-6.95-0.104-7.51,2.827c-0.411,2.162-0.221,6.022-4.145,7.889
		c1.287,1.129,2.816,2.12,5.326,2.184c5.959,0.158,9.672,3.67,6.328,4.841c-3.66,1.276-6.95-0.105-7.51,2.826
		c-0.411,2.162-0.221,6.022-4.145,7.89c1.287,1.128,2.816,2.12,5.326,2.183c5.959,0.158,9.672,3.671,6.328,4.842
		c-3.66,1.276-6.95-0.105-7.51,2.826c-0.559,2.933,0,8.954-10.051,8.954s-9.492-6.022-10.051-8.954
		c-0.56-2.932-3.85-1.55-7.51-2.826c-3.344-1.171,0.369-4.673,6.328-4.842c2.51-0.073,4.039-1.064,5.326-2.183
		c-3.934-1.867-3.733-5.717-4.145-7.89c-0.56-2.932-3.85-1.55-7.51-2.826c-3.344-1.171,0.369-4.672,6.328-4.841
		c2.51-0.074,4.039-1.065,5.326-2.184c-3.934-1.866-3.733-5.716-4.145-7.889c-0.56-2.933-3.85-1.551-7.51-2.827
		c-3.344-1.17,0.369-4.672,6.328-4.841c2.51-0.073,4.039-1.065,5.326-2.183c-3.934-1.867-3.733-5.717-4.145-7.89
		c-0.56-2.932-3.85-1.55-7.51-2.826c-3.344-1.171,0.369-4.673,6.328-4.841c2.51-0.074,4.039-1.065,5.326-2.184
		c-3.934-1.867-3.733-5.717-4.145-7.889c-0.56-2.933-3.85-1.551-7.51-2.827c-3.344-1.171,0.369-4.672,6.328-4.841
		c2.51-0.074,4.039-1.065,5.326-2.184c-3.934-1.866-3.733-5.716-4.145-7.889c-0.56-2.932-3.85-1.551-7.51-2.826
		c-3.344-1.171,0.369-4.673,6.328-4.842c2.51-0.073,4.039-1.064,5.326-2.183c-3.934-1.867-3.733-5.717-4.145-7.89
		c-0.56-2.932-3.85-1.55-7.51-2.826c-3.344-1.171,0.369-4.672,6.328-4.841c2.51-0.074,4.039-1.065,5.326-2.184
		c-3.934-1.866-3.733-5.716-4.145-7.889c-0.56-2.933-3.85-1.551-7.51-2.827c-3.344-1.17,0.369-4.672,6.328-4.841
		c2.51-0.073,4.039-1.065,5.326-2.183c-3.934-1.867-3.733-5.717-4.145-7.89c-0.56-2.932-3.85-1.55-7.51-2.826
		c-3.344-1.171,0.369-4.673,6.328-4.841c2.51-0.074,4.039-1.065,5.326-2.184c-3.934-1.867-3.733-5.717-4.145-7.889
		c-0.56-2.933-3.85-1.551-7.51-2.827c-3.344-1.171,0.369-4.672,6.328-4.841c2.51-0.074,4.039-1.065,5.326-2.184
		c-3.934-1.866-3.733-5.716-4.145-7.889c-0.56-2.932-3.85-1.551-7.51-2.826c-3.344-1.171,0.369-4.673,6.328-4.842
		c2.51-0.073,4.039-1.064,5.326-2.183c-3.934-1.867-3.733-5.717-4.145-7.89c-0.56-2.932-3.85-1.55-7.51-2.826
		c-3.344-1.171,0.369-4.672,6.328-4.841c2.51-0.074,4.039-1.065,5.326-2.184c-3.934-1.866-3.733-5.716-4.145-7.889
		c-0.56-2.933-3.85-1.551-7.51-2.827c-3.344-1.17,0.369-4.672,6.328-4.841c2.51-0.073,4.039-1.065,5.326-2.183
		c-3.934-1.867-3.733-5.717-4.145-7.89c-0.56-2.932-3.85-1.55-7.51-2.826c-3.344-1.171,0.369-4.673,6.328-4.841
		c2.51-0.074,4.039-1.065,5.326-2.184c-3.934-1.867-3.733-5.717-4.145-7.889c-0.56-2.933-3.85-1.551-7.51-2.827
		c-3.344-1.171,0.369-4.672,6.328-4.841c2.51-0.074,4.039-1.065,5.326-2.184c-3.934-1.866-3.733-5.716-4.145-7.889
		c-0.56-2.932-3.85-1.551-7.51-2.826c-3.344-1.171,0.369-4.673,6.328-4.842c2.51-0.073,4.039-1.064,5.326-2.183
		c-3.934-1.867-3.733-5.717-4.145-7.89c-0.56-2.932-3.85-1.55-7.51-2.826c-3.344-1.171,0.369-4.672,6.328-4.841
		c5.959-0.158,6.392-5.527,11.232-5.527s5.273,5.358,11.232,5.527c5.959,0.158,9.672,3.67,6.328,4.841
		c-3.66,1.276-6.95-0.105-7.51,2.826c-0.411,2.162-0.221,6.022-4.145,7.89C967.193,316.375,968.723,317.366,971.232,317.439z"/>
	<g>
		<path d="M1173.521,662.565H746.479V231.831h427.043V662.565z M765.463,643.581h389.074V250.815H765.463V643.581z"/>
	</g>
</g>
</svg>
