<?xml version="1.0" encoding="utf-8"?>
<!-- Generator: Adobe Illustrator 23.1.0, SVG Export Plug-In . SVG Version: 6.00 Build 0)  -->
<svg version="1.1" id="Layer_1" xmlns="http://www.w3.org/2000/svg" xmlns:xlink="http://www.w3.org/1999/xlink" x="0px" y="0px"
	 viewBox="0 0 1024 1024" style="enable-background:new 0 0 1024 1024;" xml:space="preserve" fill="{{ include.fill_color }}">
<g>
	<path d="M599,231.27c51.86,0.04,70.39-60.02,70.43-98.87c0.03-38.85-31.43-70.37-70.28-70.4c-38.85-0.03-70.37,31.43-70.4,70.28
		C528.71,171.13,549.93,231.23,599,231.27z"/>
	<path d="M649.19,369.81c95.06-11.29,73.88-105.41,46.83-119.47c-11.87-4.36-24.71-6.75-38.12-6.75h-54.6h-8.42h-37.36h-17.24
		c-4.43,0-8.8,0.27-13.1,0.77l0,0c-0.14,0.02-0.28,0.04-0.43,0.06c-1.54,0.19-3.07,0.41-4.59,0.66
		c-23.19,3.68-34.9,10.98-34.9,10.98l13.08-93.85c2.03-14.56-7.97-28.06-22.49-30.37c-14.34-2.28-27.91,7.2-30.71,21.45
		l-29.78,151.89c-3.96,20.19,11.8,38.85,32.36,38.34l0.64-0.02c-8.9-10.89-9.27-24.11-1.66-36.28
		c12.94-20.71,41.18-15.06,86.82-10.82c45.65,4.24,91.76,6.59,112.71,0c0,0-7.53,9.88-53.65,10.35
		c-31.68,0.32-81.78-4.9-110.06-8.21c-12.49-1.46-24.35,5.83-28.71,17.63v0c-5.55,15.04,3.01,31.57,18.48,35.75
		C512.82,362.3,584.12,377.54,649.19,369.81z"/>
	<path d="M696.83,365.46c-0.03-1.75-0.05-3.43-0.08-5.07c-19.03,17.65-53.21,22.35-88.03,20.71c-28.99-1.37-72.65-6.82-107.24-14.45
		c0.13,7.93,0.34,15.57,0.41,22.57c0.62,63.1,2.67,164.64,1.94,237.65c-1.24,126.25-6.29,247.92-0.34,303.56
		c1.91,17.95,17.08,31.56,35.15,31.56c19.11,0,34.76-15.19,35.32-34.3l13.81-298.93c0.27-5.85,5.09-10.45,10.94-10.45
		c5.69,0,10.43,4.35,10.92,10.02l26,302.87c1.79,17.49,16.52,30.79,34.08,30.79c9.28,0,17.68-3.68,23.86-9.67
		c6.18-6.01,10.13-14.29,10.39-23.57c2.16-74.03-0.43-262.04-5.07-369.56C696.63,506.78,697.61,415.83,696.83,365.46z"/>
	<polygon points="358.47,327.6 410.69,334.26 344.97,304.72 348.12,329.21 305.08,312.78 309.29,345.5 361.32,349.75 	"/>
	<polygon points="357.47,387.48 380.06,397.46 343.73,425.79 373.91,439.12 404.47,396.8 384.05,387.78 416.76,346.54 	"/>
</g>
</svg>
