<?xml version="1.0" encoding="utf-8"?>
<!-- Generator: Adobe Illustrator 23.1.0, SVG Export Plug-In . SVG Version: 6.00 Build 0)  -->
<svg version="1.1" id="Layer_1" xmlns="http://www.w3.org/2000/svg" xmlns:xlink="http://www.w3.org/1999/xlink" x="0px" y="0px"
	 viewBox="0 0 1024 1024" style="enable-background:new 0 0 1024 1024;" xml:space="preserve" fill="{{ include.fill_color }}">
<g>
	<path d="M511.91,254.13c58.86,0.05,79.9-68.13,79.93-112.22S556.16,62.04,512.07,62s-79.87,35.68-79.91,79.77
		C432.12,185.86,456.21,254.08,511.91,254.13z"/>
	<path d="M787.6,629.42H685.95c9.19,15.04,15.38,32.15,18.56,51.28h83.08v238.75h52.88V680.7v-51.28H787.6z"/>
	<path d="M236.4,629.42h-52.88v51.28v238.75h52.88V680.7h89.15c0.69-2.49,1.41-4.97,2.18-7.44c4.96-15.92,11.39-30.68,18.95-43.84
		H236.4z"/>
	<path d="M626.88,593.74c-2.23-50.76-2.98-106.02-3.61-153.81c0,0-39.58-0.79-88.05-20.82c-49.99-20.66-80.09-38.78-100.94-50.58
		c-17.64-9.98-19.54-31.51-11.36-46.99c10.82-20.48,33.98-20.14,61.76-7.59c34.05,15.39,78.88,39.13,118.59,43.1v0
		c-23.24,5.68-97.94-25.25-136.39-42.28c-13.11-5.81-28.46-0.2-34.76,12.68v0c-6.38,13.05-1.15,28.79,11.75,35.45
		c13.79,7.11,35.77,18.27,70.78,35.78c89.73,44.87,176.8,37.92,183.74,3.74c6.94-34.18-34.72-103.09-76.37-126.66
		c-13.48-4.95-28.04-7.66-43.27-7.66h-61.98h-9.56h-42.4h-19.57c-15.37,0-30.07,2.76-43.65,7.8
		c-45.04,18.09-71.75,75.78-87.24,142.01c-11.05,47.25-22.64,121.95-28.38,160.89c-2.07,14.06,7.71,27.12,21.78,29.09h0
		c13.42,1.89,25.99-7.01,28.68-20.29c5.95-29.38,16.49-79.87,25.46-114.68c10.9-42.28,32.11-82.78,39.54-96.25l-0.23,6.4
		c-0.39,17.53,0.33,35.25,0.48,50.33c0.42,42.47,0.21,100.27-0.21,157.57c-50.76,30.57-88.34,129.04-60.02,214.58
		c15.38,46.47,47.61,104.53,68.1,139.19c9.92,16.78,31.62,22.27,48.35,12.24h0c14.43-8.65,20.71-26.31,14.99-42.14
		c-11.3-31.27-29.34-84.03-39.37-128.05c-15.35-67.35,7.25-116.8,72.04-115.94c64.79,0.85,91.65,17.9,98.47,78.43
		c4.94,43.88,9.44,123.41,11.54,174.47c0.73,17.81,15.39,31.87,33.21,31.87h0c17.85,0,32.51-14.09,33.22-31.92
		c2.16-54.81,6.7-146.52,9.84-197.43C695.66,664.48,674.19,620.11,626.88,593.74z"/>
	<polygon points="390.11,207.85 388.27,267.57 414.51,190.12 387.18,196.34 401.07,145.93 364.56,154.24 365.4,213.48 	"/>
	<polygon points="324.91,243.28 375.06,275.76 322.36,213.23 313.53,239.84 277.59,201.87 265.8,237.41 316.93,267.34 	"/>
</g>
</svg>
