<?xml version="1.0" encoding="utf-8"?>
<!-- Generator: Adobe Illustrator 23.1.0, SVG Export Plug-In . SVG Version: 6.00 Build 0)  -->
<svg version="1.1" id="Layer_1" xmlns="http://www.w3.org/2000/svg" xmlns:xlink="http://www.w3.org/1999/xlink" x="0px" y="0px"
	 viewBox="0 0 1024 1024" style="enable-background:new 0 0 1024 1024;" xml:space="preserve" fill="{{ include.fill_color }}">
<g>
	<path d="M620.58,202.98c-14.3-0.84-52.41-1.29-74.82,0.66c-17.61,1.53-27,15.22-27.72,32.12v0c0,17.65,16.25,26.65,31.96,28.24
		l57.07,5.13l-54.66,48.69l-59.81-0.07l-48.26,0.1c-3.9,0.28-10.84-0.47-17.07-1.4l-48.7-47.31l57.07-5.13
		c15.71-1.59,31.96-10.59,31.96-28.24v0c-0.73-16.9-10.11-30.59-27.72-32.12c-22.41-1.94-60.53-1.5-74.82-0.66
		c-41.06,2.42-105.85,1.2-85.14,50.91c20.71,49.7,120.51,164.29,127.63,210.88c-0.07,1.18-0.15,2.32-0.22,3.4
		c-3.7,53-1.12,147.19-1.8,215.96c-1.16,118.92,4.24,233.54,9.85,285.95c1.8,16.91,16.09,29.73,33.11,29.73
		c18,0,32.74-14.31,33.27-32.31l8.72-291.42h19.33l30.05,294.73c1.69,16.47,15.56,29,32.1,29c8.74,0,16.66-3.47,22.48-9.1
		c5.82-5.66,9.54-13.46,9.79-22.2c2.03-69.73-3.42-261.8-8-365.08c-2.19-49.38-0.37-82.98-3.63-142.15c-0.15-2.74-0.36-5.84-0.6-9.2
		c8.36-47.13,93.23-148.91,113.77-198.2C726.43,204.19,661.64,205.4,620.58,202.98z"/>
	<polygon points="402.07,113.48 416.5,170.1 420.19,90.21 396.19,103.45 395.6,52.32 363.53,70.01 380.37,125.46 	"/>
	<polygon points="350.38,164.43 406.3,181.38 339.85,136.88 338.76,164.27 294.7,138.32 293.25,174.91 349.4,189.2 	"/>
	<polygon points="584.78,173.64 663.82,161.41 646.07,140.51 696.07,129.79 672.37,101.87 621.37,129.37 637.41,148.26 	"/>
	<polygon points="571.71,165.88 602.13,91.92 575.07,96.29 591.76,47.96 555.61,53.8 552.75,111.67 577.22,107.72 	"/>
	<path d="M480.58,235.2l0.01,0.28v0.28c0,20.49-15.25,36.25-38.46,40.44c10.7,17.85,26.8,31.13,49.23,31.99
		c25.29,0.97,43.14-12.75,54.94-31.54c-24.78-3.38-41.26-19.58-41.26-40.88v-0.28l0.01-0.28c1.08-25.05,16.62-42.52,39.59-44.51
		c5.4-0.47,11.45-0.78,17.44-1c-8.39-27.79-33.64-48.51-64.27-49.68c-32.58-1.25-60.81,20-69.71,49.87
		c4.46,0.2,8.86,0.46,12.89,0.81C463.96,192.68,479.5,210.15,480.58,235.2z"/>
</g>
</svg>
