
<?xml version="1.0" encoding="utf-8"?>
<!-- Generator: Adobe Illustrator 23.1.0, SVG Export Plug-In . SVG Version: 6.00 Build 0)  -->
<svg version="1.1" id="Layer_1" xmlns="http://www.w3.org/2000/svg" xmlns:xlink="http://www.w3.org/1999/xlink" x="0px" y="0px"
	 viewBox="0 0 1024 1024" style="enable-background:new 0 0 1024 1024;" xml:space="preserve" fill="{{ include.fill_color }}">
<g>
	<path d="M538.74,231.27c51.86,0.04,70.39-60.02,70.43-98.87c0.03-38.85-31.43-70.37-70.28-70.4c-38.85-0.03-70.37,31.43-70.4,70.28
		C468.44,171.13,489.67,231.23,538.74,231.27z"/>
	<path d="M637.9,456.3c-23.22,0.55-58.42,1.04-85.22,1.23c2.41,5.65,3.08,12.08,1.59,18.46c-3.16,13.51-15.04,22.95-28.9,22.95
		c-1.9,0-3.81-0.19-5.68-0.55c-4.7-0.91-12.63-2.92-21.81-5.24c-11.67-2.95-26.19-6.62-38.58-9.18c-5.75-1.18-11.82-2.44-17.58-3.7
		c-0.2,49.56-0.72,103.14-1.15,146.6c-1.24,126.25-3.3,247.93,2.66,303.57c1.92,17.95,17.08,31.56,35.15,31.56
		c19.11,0,34.76-15.19,35.32-34.3l13.81-298.93c0.27-5.84,5.09-10.45,10.94-10.45c5.69,0,10.43,4.36,10.92,10.02l26,302.87
		c1.79,17.49,16.52,30.79,34.08,30.79c9.28,0,17.68-3.68,23.86-9.67c6.18-6,10.13-14.29,10.39-23.56
		c2.16-74.03,5.27-266.13-2.07-369.56C639.69,531.73,638.6,493.61,637.9,456.3z"/>
	<path d="M597.64,243.58H480.01c-62.99,0-113.25,52.55-110.45,115.48l1.59,38.07l0.51,12.2l-0.01,0.01c0.01,0.15,0.01,0.3,0.02,0.45
		c1.67,36.14,21.05,48.63,54.69,57.57c4.84,1.29,9.98,2.51,15.4,3.71c6.1,1.35,12.56,2.69,19.36,4.09c22.18,4.57,50,12.4,60.28,14.4
		c10.93,2.12,21.57-4.77,24.1-15.61c2.29-9.82-2.82-19.86-12.11-23.78l-3.87-1.63c0.55,0.05,1.1,0.08,1.65,0.08
		c25.9,0.03,76.17-0.59,106.56-1.31c5.02-0.12,9.49-0.24,13.22-0.36c3.15-0.1,5.78-0.21,7.76-0.31
		c40.34-2.09,46.48-22.27,47.59-45.18c0.02-0.36,0.03-0.73,0.05-1.09v-0.07l0.66-15.76l1.06-25.47
		C710.88,296.13,660.62,243.58,597.64,243.58z M640.19,395.1l-3.21,0.43l-108.34,14.59c-10.74,1.44-18.19,11.42-16.53,22.13
		c0.73,4.7,3.12,8.78,6.51,11.69l-63.65-26.78l-27.65-10.8l0.17-11.21l0.66-41.98c0.14-8.39,5.76-15.41,13.4-17.7
		c-0.97,18.39-0.08,37.76,0.08,53.75c0.04,4.2,0.08,8.58,0.1,13.11l16.73,6.53l44.47,18.71c0.31-5.48,2.22-10.75,5.59-15.26
		c4.6-6.14,11.32-10.09,18.92-11.11l109.43-14.74c-0.1-7.55-0.2-14.6-0.3-21c-0.19-12.29-0.36-21.62-0.81-30.08
		c7.81,2.19,13.59,9.28,13.73,17.79l0.48,30.42l0.14,9.17C644.14,394.04,640.19,395.1,640.19,395.1z"/>
	<polygon points="369.2,482.01 421.41,488.66 355.7,459.12 358.85,483.61 315.81,467.18 320.02,499.9 372.05,504.16 	"/>
	<polygon points="368.2,541.89 390.79,551.87 354.46,580.19 384.64,593.52 415.2,551.2 394.77,542.18 427.49,500.94 	"/>
</g>
</svg>