<?xml version="1.0" encoding="utf-8"?>
<!-- Generator: Adobe Illustrator 23.1.0, SVG Export Plug-In . SVG Version: 6.00 Build 0)  -->
<svg version="1.1" id="Layer_1" xmlns="http://www.w3.org/2000/svg" xmlns:xlink="http://www.w3.org/1999/xlink" x="0px" y="0px"
	 viewBox="0 0 1024 1024" style="enable-background:new 0 0 1024 1024;" xml:space="preserve" fill="{{ include.fill_color }}">
<g>
	<path d="M625.99,248.87c23.91,28.65,20.06,71.26-8.59,95.17c-28.65,23.91-84.34,47.25-116.26,9
		c-30.2-36.19,1.02-88.86,29.67-112.76C559.47,216.37,602.08,220.22,625.99,248.87z"/>
	<g>
		<polygon points="153,665.8 143.88,630.84 192.91,642.71 186.08,616.54 261.57,639.49 203.93,639.53 210.1,663.19 		"/>
		<polygon points="201.71,761.83 172.32,740.81 217.58,718.53 195.58,702.8 268.26,672.1 224.01,709.03 243.9,723.25 		"/>
	</g>
	<g>
		<path d="M262.79,416.09c6.22-4.45,13.92-9.23,22.98-14.27c-10.47-6.77-23.29-10.02-36.62-8.28h0l3.95,30.37
			C255.74,421.43,258.95,418.84,262.79,416.09z"/>
		<path d="M333.36,618.2c-3.42-2.98-6.35-6.56-8.61-10.65c-31.94-57.83-51.45-95.18-63.32-119.59l34.31,263.8h0
			c29.87-3.88,50.93-31.25,47.05-61.11L333.36,618.2z"/>
	</g>
	<path d="M419.15,358.77c-85.57,26.79-162.05,66.83-164.3,82.1c-1.71,11.65,53.58,113.52,79.89,161.16
		c7.46,13.51,24.42,18.46,37.97,11.09l0,0c12.47-6.78,17.91-21.8,12.68-35l-42.85-108.05l27.31-13.93L419.15,358.77z"/>
	<path d="M400.85,367.65c-44.19,27.99-49.13,77.71-49.98,123.43c0.05,0.1,29.1,54.03,40.99,78.26c11.9,24.26,4.94,46.27-15.72,54.8
		c-7.82,3.23-16.25,3.37-23.71,2.3c2.53,19.93,3.85,41.22,15.17,57.45c43.42,62.23,191.84,11.44,202.17,37.47
		c5.34,13.47-9.14,122.7-15.57,173.72c-2.6,20.64-10.34,42.51,4.37,57.22l0,0c0,0,0,0,0,0c16.51,13.31,45.15,14.06,54.37-5.04
		c28.26-58.58,48.65-270.13,41.63-293.26c-17.17-56.57-165.76-18.88-159.67-63.42c10.85-79.27,16.33-115.81,21.84-149.27
		C529.32,364.96,454.75,333.51,400.85,367.65z"/>
	<path d="M495.31,724.5H381.28c-30.12,0-54.53,24.42-54.53,54.53v0h223.09v0C549.84,748.91,525.43,724.5,495.31,724.5z"/>
	<path d="M508.94,918h-54.22V749.23h-32.84V918h-54.22c-12.15,0-22,9.85-22,22c0,12.15,9.85,22,22,22s22-9.85,22-22h97.29
		c0,12.15,9.85,22,22,22s22-9.85,22-22C530.94,927.85,521.09,918,508.94,918z"/>
	<rect x="549.84" y="554.31" width="330.28" height="38.99"/>
	
		<rect x="597.26" y="679.14" transform="matrix(-1.836970e-16 1 -1 -1.836970e-16 1559.2648 -29.9448)" width="394.68" height="171.04"/>
	<path d="M652.07,538.81c0,8.56,6.94,15.49,15.49,15.49H810.1c8.56,0,15.49-6.94,15.49-15.49H652.07z"/>
	<path d="M806.24,549.51c8.26,2.24,16.77-2.64,19.01-10.9l37.32-137.56c2.24-8.26-2.64-16.77-10.9-19.01L806.24,549.51z"/>
	<g>
		<path d="M326.75,62c-55.65,0-100.93,45.28-100.93,100.93s45.28,100.93,100.93,100.93s100.93-45.28,100.93-100.93
			S382.4,62,326.75,62z M334.12,248.79v-11.54c0-4.07-3.3-7.37-7.37-7.37c-4.07,0-7.37,3.3-7.37,7.37v11.54
			c-41.65-3.55-74.94-36.84-78.49-78.49h11.54c4.07,0,7.37-3.3,7.37-7.37c0-4.07-3.3-7.37-7.37-7.37h-11.54
			c3.55-41.65,36.84-74.94,78.49-78.49v11.54c0,4.07,3.3,7.37,7.37,7.37c4.07,0,7.37-3.3,7.37-7.37V77.07
			c41.65,3.55,74.94,36.84,78.49,78.49h-11.54c-4.07,0-7.37,3.3-7.37,7.37c0,4.07,3.3,7.37,7.37,7.37h11.54
			C409.06,211.95,375.77,245.24,334.12,248.79z"/>
		<path d="M373.48,189.1l-1.12-1.94c-0.19-0.32-0.36-0.67-0.62-0.89c-0.25-0.24-0.57-0.38-0.88-0.53c-0.63-0.29-1.13-0.76-1.7-1.14
			l-1.66-1.2l-3.31-2.4l-6.62-4.81l-23.45-17.02v-22.56v-6.58v-1.64c0.01-0.55-0.03-1.1,0.08-1.64c0.1-0.55,0.21-1.1,0.01-1.64
			c-0.21-0.55-0.47-1.1-0.71-1.64c-1.94-4.39-4.06-8.77-6.76-13.16c-2.7,4.39-4.82,8.77-6.76,13.16c-0.23,0.55-0.5,1.1-0.71,1.64
			c-0.2,0.55-0.09,1.1,0.01,1.64c0.11,0.55,0.07,1.1,0.08,1.64v1.64v6.58v26.32v3.76l3.04,2.21l26.49,19.23l6.62,4.81l3.31,2.4
			l1.66,1.2c0.54,0.42,1.14,0.76,1.61,1.26c0.24,0.25,0.47,0.51,0.78,0.67c0.29,0.17,0.68,0.23,1.04,0.31l2.19,0.47
			c1.45,0.32,2.95,0.58,4.43,0.86c2.98,0.54,6.03,0.97,9.19,1.27c-1.26-2.9-2.62-5.67-4.06-8.34
			C374.94,191.72,374.23,190.38,373.48,189.1z"/>
	</g>
</g>
</svg>
