<?xml version="1.0" encoding="utf-8"?>
<!-- Generator: Adobe Illustrator 23.1.0, SVG Export Plug-In . SVG Version: 6.00 Build 0)  -->
<svg version="1.1" id="Layer_1" xmlns="http://www.w3.org/2000/svg" xmlns:xlink="http://www.w3.org/1999/xlink" x="0px" y="0px"
	 viewBox="0 0 1024 1024" style="enable-background:new 0 0 1024 1024;" xml:space="preserve" fill="{{ include.fill_color }}">
<g>
	<path d="M546.76,280.38c37.75,21.16,80.03-15.9,96.78-45.79c16.75-29.89,6.1-67.71-23.79-84.46c-29.89-16.75-67.71-6.1-84.46,23.79
		C518.55,203.82,506.86,258.02,546.76,280.38z"/>
	<path d="M819.16,648.26c32.18-3.54,55.4-32.5,51.86-64.69c-3.54-32.18-32.5-55.4-64.69-51.86c-32.18,3.54-80.27,24.33-75.54,67.29
		C735.27,639.66,786.98,651.8,819.16,648.26z"/>
	<path d="M895.81,658.93H128.19c-8.94,0-16.19,7.25-16.19,16.19v60.54c0,8.94,7.25,16.19,16.19,16.19h43.19v104.1h38.33v-104.1
		h604.57v104.1h38.33v-104.1h43.19c8.94,0,16.19-7.25,16.19-16.19v-60.54C912,666.18,904.75,658.93,895.81,658.93z"/>
	<path d="M421.53,537.84c-0.94,6.34-1.83,12.71-2.71,19.13c3.75-0.44,7.45-0.89,11.16-1.33c-0.77-1.46-1.51-2.99-2.27-4.54
		c-0.64-1.28-1.28-2.62-1.93-4C424.35,544.13,422.94,541.05,421.53,537.84z"/>
	<path d="M491.67,759.26h-72.49c7.67,45.19,18.86,80.65,26.69,101.96c4.89,13.32,18.07,21.72,32.21,20.45h0
		c19.11-1.71,32.17-20.06,27.59-38.7C498.43,813.56,494.05,785.47,491.67,759.26z"/>
	<path d="M652.06,759.26h-80.13c20.79,47.4,41.98,79.09,56.6,97.75c9.97,12.73,27.73,16.26,41.77,8.24v0
		c15.45-8.82,20.95-28.4,12.34-43.96C674.11,805.9,663.17,784.67,652.06,759.26z"/>
	<path d="M171.77,647.08h34.53c0,0,377.52,0,440.73,0c63.19,0,80.49-30.7,72.94-60.45c-5.31-20.88-23.92-32.28-51.83-37.52
		c-0.72,5.06-1.43,9.68-2.1,13.8c-0.25,1.53-0.62,3.01-1.09,4.44l10.89-0.47l-11.03,0.91c-3.85,10.84-14.07,18.27-25.97,18.27
		c-2.67,0-5.31-0.37-7.85-1.14c-7.18-2.12-12.88-6.89-16.27-12.98L486.6,582.56c-10.98,0.91-19.23,10.49-18.46,21.5
		c0.72,10.37,9.18,18.51,19.57,18.81l192.05,5.43l-192.28,1.97c-14.27-0.42-25.77-11.45-26.73-25.69
		c-1.04-14.98,10.29-28.16,25.25-29.4l127.56-5.58c-2-4.49-2.79-9.55-2.1-14.74c0.4-3.13,0.77-6.22,1.06-9.28
		c-16.59,0.32-34.6,1.51-53.66,3.26c-17.08,1.58-42.53,4.27-72.57,7.68c-0.57,10.24-7.11,19.65-17.18,23.45
		c-3.01,1.14-6.15,1.7-9.35,1.7c-9.6,0-18.49-5.18-23.15-13.58c-0.96-1.73-1.95-3.53-2.96-5.45
		c-98.33,11.7-217.85,27.3-266.32,36.36c-11.48,2.15-19.8,12.17-19.8,23.84C147.53,636.22,158.39,647.08,171.77,647.08z"/>
	<path d="M466.51,573.05L466.51,573.05c9.43-3.54,14.51-13.77,11.62-23.43c-8.39-28.08-24.08-82.39-24.72-98.31
		c-0.87-21.76,44.21-90.34,44.28-90.45l0.01,0c-16.73,25.45-36.88,74.66-36.88,89.55V451c0.42,10.91,9.33,46.06,24.41,96.48
		c0.15,0.57,0.27,1.11,0.4,1.68c0.02,0,0.02,0,0.05,0c29.96-3.41,55.36-6.1,72.52-7.68c15.6-1.46,29.57-2.42,42.26-2.94
		c0-1.36-0.02-2.72,0-4.1c0.35-36.9,2.72-71.38,5.95-101.77c0.84-7.89,1.74-15.49,2.67-22.81c7.61,32.88,17.79,83.73,9.73,145.93
		c-1.28,9.86,4.75,19.2,14.28,22.02l0,0c11.66,3.45,23.71-4.1,25.65-16.11c5-30.95,12.02-88.23,5.21-135.54
		c-9.39-65.16-29.5-95.58-53.83-116.42c-1.17-1.12-2.42-2.17-3.75-3.12c-0.02-0.02-0.04-0.03-0.06-0.05
		c-2.73-2.2-4.92-3.37-6.66-3.72c-2.49-1.05-5.15-1.84-7.94-2.29l-2.32-0.37l-81.35-13.16c-6.17-1.01-12.27-0.3-17.75,1.8
		c-2.41,0.91-4.7,2.1-6.84,3.52l0,0c-35.82,22.3-68.05,84.88-74.59,148.33c-4.8,46.59,20.47,99.15,34.23,123.79
		C447.69,572.75,457.65,576.37,466.51,573.05z"/>
</g>
</svg>
