<?xml version="1.0" encoding="utf-8"?>
<!-- Generator: Adobe Illustrator 23.1.0, SVG Export Plug-In . SVG Version: 6.00 Build 0)  -->
<svg version="1.1" id="Layer_1" xmlns="http://www.w3.org/2000/svg" xmlns:xlink="http://www.w3.org/1999/xlink" x="0px" y="0px"
	 viewBox="0 0 1024 1024" style="enable-background:new 0 0 1024 1024;" xml:space="preserve" fill="{{ include.fill_color }}">
<g>
	<path d="M408.68,962L408.68,962c19.39,0,34.8-16.28,33.74-35.64c-1.54-28.04-3.79-67.36-5.95-98.06
		c-3.77-53.67,50.69-144.07,50.69-144.07s14.27,105.47,18.04,136.54c2.65,21.9,49.74,83.08,77.31,117.3
		c11.16,13.85,30.75,17.49,46.13,8.56l0,0c17.49-10.15,23.19-32.71,12.63-49.95c-21.63-35.32-54.53-89.2-60.75-100.39
		c-9.42-16.95-14.12-116.75,0-197.72s6.59-109.22,6.59-109.22s19.77,30.13,36.72,63.08c11.44,22.25,8.72,70.24,5.75,99.08
		c-1.37,13.29,7.54,25.45,20.62,28.12h0c14.9,3.04,29.21-7.34,30.95-22.45c3.5-30.4,7.84-79.95,4.82-119.81
		c-4.71-62.14-72.5-137.46-93.21-145.93c-20.71-8.47-118.63-5.65-133.69,0c-15.06,5.65-65.91,51.05-73.86,55.24
		c-7.95,4.18,42.26-84.11,56.91-110.47c14.65-26.36-8.37-44.36-25.11-40.17c-16.74,4.18-45.61,54.82-67.79,89.55
		c-22.18,34.73-55.65,99.17-34.73,124.7s91.22,0.84,115.49-11.3c0,0-2.98,91.99-28.6,155.52c-26.34,65.32-38.51,133.21-43.53,161.24
		c-3.51,19.61,9.64,83.35,17.86,119.89C379.18,951.05,392.88,962,408.68,962z"/>
	<path d="M506.78,213.37c37.69-4.49,71.88,22.42,76.37,60.11s-6.49,98.11-56.8,104.1c-47.6,5.67-75.18-50.15-79.67-87.84
		S469.09,217.86,506.78,213.37z"/>
	<g>
		<path d="M673.18,69.34c11.17,6.99,18.66,16.37,22.48,28.15c3.82,11.78,2.58,22.69-3.72,32.76c-3.51,5.62-8.02,9.96-13.5,13.04
			c-5.49,3.08-11.15,5.21-17,6.4c-5.85,1.19-13.8,2.34-23.87,3.45c-10.07,1.1-17.7,3-22.88,5.69c-5.18,2.69-8.88,5.8-11.1,9.35
			c-3.55,5.68-6.98,7.49-10.26,5.43c-1.74-1.09-2.52-2.5-2.34-4.22c0.18-1.72,1.73-4.91,4.63-9.55c2.9-4.64,7.09-8.57,12.56-11.79
			c5.47-3.22,14.2-6.01,26.18-8.38c12.34-2.51,21.16-5.66,26.46-9.48c5.3-3.81,9.59-8.33,12.86-13.55
			c3.91-6.25,5.48-13.05,4.71-20.4c-0.78-7.35-4.32-13-10.62-16.94c-7.66-4.79-14.96-6.54-21.9-5.25
			c-6.94,1.29-12.39,5.09-16.33,11.39c-2.17,3.47-3.27,6.92-3.29,10.36s1.18,5.91,3.6,7.42c0.78,0.49,1.55,0.81,2.31,0.98
			c0.76,0.16,1.46,0.45,2.12,0.85c1.5,0.94,2.66,2.44,3.49,4.52c0.83,2.08,0.78,3.85-0.14,5.33c-1.64,2.63-4.13,3.94-7.47,3.95
			c-3.34,0.01-6.65-1.02-9.95-3.09c-4.79-3-7.66-7.75-8.63-14.27c-0.96-6.52,1.01-13.7,5.93-21.56
			c5.56-8.88,13.57-14.53,24.02-16.95C651.97,60.55,662.53,62.67,673.18,69.34z M588.59,186.43c2.59,1.62,4.37,4.08,5.34,7.36
			c0.97,3.28,0.4,6.59-1.69,9.93c-1.61,2.57-4.03,4.14-7.25,4.71c-3.23,0.57-6.23-0.01-9-1.75c-2.8-1.75-4.66-4.32-5.57-7.71
			c-0.91-3.39-0.51-6.46,1.22-9.22c1.77-2.82,4.31-4.54,7.62-5.15C582.57,184,585.68,184.61,588.59,186.43z"/>
	</g>
	<g>
		<path d="M718.31,231.05c2.73,9.54,2.19,18.56-1.61,27.07c-3.8,8.51-9.99,13.99-18.59,16.45c-4.79,1.37-9.5,1.53-14.12,0.49
			c-4.62-1.04-8.86-2.71-12.73-4.98c-3.87-2.28-8.9-5.64-15.09-10.1c-6.19-4.46-11.41-7.24-15.66-8.35
			c-4.25-1.11-7.89-1.23-10.92-0.36c-4.85,1.39-7.67,0.67-8.48-2.13c-0.42-1.49-0.15-2.67,0.82-3.54c0.97-0.87,3.44-1.88,7.4-3.01
			c3.96-1.13,8.28-1.22,12.96-0.26c4.68,0.96,10.97,3.79,18.86,8.5c8.16,4.81,14.69,7.49,19.58,8.03c4.89,0.54,9.56,0.17,14.02-1.1
			c5.34-1.53,9.64-4.54,12.91-9.04c3.27-4.5,4.13-9.44,2.6-14.83c-1.87-6.54-5.07-11.2-9.6-13.97c-4.53-2.78-9.49-3.39-14.87-1.86
			c-2.97,0.85-5.32,2.23-7.06,4.14c-1.74,1.91-2.32,3.9-1.72,5.97c0.19,0.67,0.46,1.24,0.8,1.71c0.34,0.47,0.59,0.99,0.75,1.54
			c0.37,1.28,0.25,2.71-0.33,4.28c-0.58,1.58-1.51,2.55-2.76,2.91c-2.24,0.64-4.3,0.12-6.17-1.55c-1.87-1.68-3.21-3.92-4.01-6.74
			c-1.17-4.09-0.38-8.2,2.36-12.33c2.74-4.13,7.47-7.15,14.18-9.07c7.59-2.17,14.91-1.29,21.98,2.62
			C710.88,215.44,715.71,221.95,718.31,231.05z M612.01,253.92c0.63,2.21,0.39,4.48-0.72,6.8c-1.11,2.32-3.1,3.89-5.95,4.71
			c-2.19,0.63-4.34,0.29-6.43-1.02c-2.09-1.31-3.48-3.15-4.15-5.51c-0.68-2.39-0.43-4.76,0.77-7.12c1.2-2.35,2.97-3.87,5.33-4.54
			c2.41-0.69,4.7-0.37,6.85,0.96C609.86,249.52,611.3,251.43,612.01,253.92z"/>
	</g>
	<g>
		<path d="M509.79,62.58c9.79-1.57,18.69,0.04,26.69,4.82c8,4.79,12.7,11.59,14.11,20.41c0.79,4.92,0.39,9.62-1.2,14.08
			c-1.59,4.46-3.74,8.48-6.47,12.05c-2.72,3.57-6.67,8.16-11.83,13.78c-5.16,5.61-8.55,10.47-10.15,14.55
			c-1.61,4.09-2.16,7.69-1.66,10.8c0.8,4.98-0.25,7.7-3.13,8.16c-1.53,0.24-2.67-0.17-3.42-1.23c-0.75-1.07-1.45-3.64-2.1-7.71
			c-0.65-4.07-0.22-8.37,1.28-12.9c1.51-4.53,5.07-10.44,10.69-17.72c5.75-7.53,9.19-13.69,10.31-18.48
			c1.12-4.79,1.31-9.47,0.58-14.05c-0.88-5.48-3.36-10.12-7.43-13.9c-4.08-3.78-8.88-5.23-14.41-4.35
			c-6.71,1.08-11.72,3.7-15.02,7.87c-3.3,4.17-4.5,9.02-3.62,14.55c0.49,3.05,1.58,5.55,3.26,7.5c1.69,1.96,3.59,2.76,5.72,2.42
			c0.68-0.11,1.28-0.31,1.79-0.59c0.51-0.28,1.05-0.47,1.62-0.56c1.31-0.21,2.72,0.07,4.21,0.84c1.5,0.77,2.35,1.8,2.56,3.09
			c0.37,2.3-0.39,4.28-2.28,5.94c-1.89,1.66-4.28,2.71-7.17,3.18c-4.2,0.67-8.18-0.6-11.96-3.82c-3.77-3.22-6.21-8.27-7.31-15.16
			c-1.25-7.79,0.49-14.96,5.22-21.51C493.41,68.1,500.44,64.08,509.79,62.58z M519.82,170.85c2.27-0.36,4.5,0.15,6.67,1.53
			c2.17,1.38,3.49,3.54,3.96,6.47c0.36,2.25-0.23,4.34-1.78,6.26c-1.55,1.92-3.54,3.08-5.97,3.47c-2.45,0.39-4.78-0.14-6.97-1.61
			c-2.2-1.47-3.49-3.41-3.87-5.83c-0.4-2.48,0.19-4.71,1.77-6.69C515.2,172.46,517.26,171.26,519.82,170.85z"/>
	</g>
	<g>
		<path d="M389.08,199.5c-18.89,6.51-39.56-3.55-46.07-22.44s3.55-39.56,22.44-46.07c18.89-6.51,39.56,3.55,46.07,22.44
			S407.97,192.98,389.08,199.5z M368.59,140.09c-13.87,4.78-21.26,19.96-16.48,33.83c4.78,13.87,19.96,21.26,33.83,16.48
			c13.87-4.78,21.26-19.96,16.48-33.83C397.64,142.7,382.46,135.3,368.59,140.09z"/>
	</g>
	<g>
		<path d="M426.05,259.9c-12.57,4.33-26.31-2.36-30.65-14.93c-4.33-12.57,2.36-26.31,14.93-30.65s26.31,2.36,30.65,14.93
			C445.31,241.82,438.62,255.57,426.05,259.9z M413.47,223.42c-7.55,2.6-11.57,10.86-8.97,18.41c2.6,7.55,10.86,11.57,18.41,8.97
			c7.55-2.6,11.57-10.86,8.97-18.41C429.28,224.84,421.02,220.82,413.47,223.42z"/>
	</g>
	<g>
		<path d="M345.65,287.27c-16.38,5.65-34.3-3.08-39.95-19.46s3.08-34.3,19.46-39.95s34.3,3.08,39.95,19.46
			S362.02,281.62,345.65,287.27z M328.3,236.96c-11.36,3.92-17.42,16.35-13.5,27.71c3.92,11.36,16.35,17.42,27.71,13.5
			c11.36-3.92,17.42-16.35,13.5-27.71C352.09,239.1,339.66,233.05,328.3,236.96z"/>
	</g>
</g>
</svg>
