<?xml version="1.0" encoding="utf-8"?>
<!-- Generator: Adobe Illustrator 23.1.0, SVG Export Plug-In . SVG Version: 6.00 Build 0)  -->
<svg version="1.1" id="Layer_1" xmlns="http://www.w3.org/2000/svg" xmlns:xlink="http://www.w3.org/1999/xlink" x="0px" y="0px"
	 viewBox="0 0 1024 1024" style="enable-background:new 0 0 1024 1024;" xml:space="preserve" fill="{{ include.fill_color }}">
<g>
	<g>
		<path d="M372.66,62c38.85,0.03,70.31,31.55,70.28,70.4s-18.57,98.91-70.43,98.87c-49.07-0.04-70.29-60.14-70.26-98.99
			S333.82,61.97,372.66,62z"/>
		<path d="M541.87,359.06l-7.11,170.44c-14.01,3.16-30.18,5.31-48.62,5.59c-0.01-0.12-0.02-0.25-0.02-0.37l-2.85-181.55
			c-0.14-8.51-5.92-15.6-13.73-17.79c0.46,8.46,0.62,17.79,0.81,30.08c0.67,43.28,1.19,116.57,3.67,169.56
			c-11.05-0.3-22.49-1.24-34.13-2.81l-14.9-2l-1.97,14.91c-0.48,3.68-11.66,91.25,6.51,186.95c9.81,51.72,26.42,95.98,49.42,131.79
			c-0.46,25.98-0.99,48.39-1.47,64.91c-0.26,9.27-4.21,17.56-10.39,23.56c-6.18,5.99-14.58,9.67-23.86,9.67
			c-17.56,0-32.29-13.3-34.08-30.79l-26-302.87c-0.49-5.66-5.23-10.02-10.92-10.02c-5.85,0-10.67,4.61-10.94,10.45L347.48,927.7
			c-0.56,19.11-16.21,34.3-35.32,34.3c-18.07,0-33.23-13.61-35.15-31.56c-5.96-55.64-3.9-177.32-2.66-303.57
			c0.73-73,1.68-174.55,1.06-237.65c-0.16-15.99-1.05-35.36-0.08-53.75c-7.64,2.29-13.25,9.31-13.39,17.7l-2.86,181.55
			c-0.22,13.21-10.99,23.81-24.2,23.81c-12.95,0-23.61-10.2-24.19-23.14l-7.35-176.33c-2.8-62.93,47.46-115.48,110.45-115.48h117.63
			C494.41,243.58,544.67,296.13,541.87,359.06z"/>
	</g>
	<path d="M817.11,547.08c-136.15,18.3-189.6-51.61-189.6-51.61s-53.46,69.91-189.6,51.61c0,0-46.22,351.04,189.6,404.49
		C863.32,898.11,817.11,547.08,817.11,547.08z M600.05,806.21l-80.83-80.83l29.66-29.66l51.17,51.17l106.07-106.07l29.66,29.66
		L600.05,806.21z"/>
</g>
</svg>
